<svg width="898" height="612" viewBox="0 0 898 612" fill="none" xmlns="http://www.w3.org/2000/svg">
<g filter="url(#filter0_d)">
<rect x="100" y="93" width="704" height="417.466" rx="26" fill="#242832"/>
<path d="M100 119C100 104.641 111.641 93 126 93H778C792.359 93 804 104.641 804 119V147.555H100V119Z" fill="#23272A"/>
<path d="M148.349 126.218C145.201 124.309 141.626 124.176 138.443 126.566C136.902 127.722 135.764 129.469 134.143 130.484C132.552 131.482 130.441 130.891 128.915 130.048C127.048 129.016 125.314 126.618 122.964 127.015C121.906 127.194 121.038 127.913 120.546 128.847C120.55 128.367 120.579 127.887 120.63 127.41C120.818 125.672 121.315 123.962 122.121 122.374C124.479 118.411 128.84 119.642 131.975 122.853C136.848 127.844 147.062 121.677 139.828 114.048L144.502 118.835C146.284 120.66 147.486 122.853 148.109 125.175C148.168 125.394 148.222 125.615 148.27 125.836C148.298 125.963 148.325 126.09 148.349 126.218Z" fill="#5D6BFF" fill-opacity="0.8"/>
<path d="M148.445 131.217C148.87 127.145 142.382 125.328 139.037 131.99C135.692 138.653 128.444 141.381 123.11 137.288C123.11 137.288 123.11 137.288 123.11 137.288C122.96 137.071 122.817 136.851 122.681 136.628C121.229 134.259 120.518 131.55 120.546 128.847C121.038 127.913 121.906 127.194 122.964 127.015C125.314 126.618 127.048 129.016 128.915 130.048C130.441 130.891 132.552 131.482 134.143 130.484C135.764 129.469 136.902 127.722 138.443 126.566C141.626 124.176 145.201 124.309 148.349 126.218C148.504 127.029 148.591 127.852 148.609 128.676C148.628 129.525 148.573 130.376 148.445 131.217Z" fill="#5D6BFF" fill-opacity="0.9"/>
<path d="M131.975 122.853C128.84 119.642 124.479 118.411 122.121 122.374C122.626 121.375 123.255 120.425 124.006 119.547C124.212 119.304 124.429 119.067 124.655 118.835L133.654 109.619C134.165 109.095 134.993 109.095 135.504 109.619L139.28 113.487L139.828 114.048C147.062 121.677 136.848 127.844 131.975 122.853Z" fill="#5D6BFF" fill-opacity="0.7"/>
<path d="M148.445 131.217C148.445 131.217 148.445 131.217 148.445 131.218C148.005 134.127 146.69 136.923 144.502 139.164C139.022 144.778 130.135 144.778 124.655 139.164C124.079 138.575 123.565 137.947 123.11 137.288C128.444 141.381 135.692 138.653 139.037 131.99C142.382 125.328 148.87 127.145 148.445 131.217Z" fill="#5D6BFF"/>
<path d="M126.958 124.056C126.017 123.733 125.434 122.924 125.655 122.25C125.876 121.575 126.817 121.291 127.758 121.614C128.699 121.938 129.282 122.747 129.061 123.421C128.84 124.095 127.898 124.38 126.958 124.056Z" fill="#8690F7"/>
<path d="M124.147 133.475C122.744 132.992 121.874 131.786 122.204 130.78C122.533 129.774 123.938 129.35 125.341 129.832C126.743 130.315 127.613 131.521 127.284 132.527C126.954 133.533 125.55 133.957 124.147 133.475Z" fill="#7884FA"/>
<path d="M144.176 134.805C142.895 135.563 141.436 135.432 140.918 134.513C140.4 133.594 141.019 132.235 142.301 131.477C143.582 130.72 145.041 130.85 145.559 131.769C146.077 132.688 145.458 134.047 144.176 134.805Z" fill="#6B78FC"/>
<path d="M148.349 126.218C145.201 124.309 141.626 124.176 138.443 126.566C136.902 127.722 135.764 129.469 134.143 130.484C132.552 131.482 130.441 130.891 128.915 130.048C127.048 129.016 125.314 126.618 122.964 127.015C121.906 127.194 121.038 127.913 120.546 128.847C120.55 128.367 120.579 127.887 120.63 127.41C120.818 125.672 121.315 123.962 122.121 122.374C124.479 118.411 128.84 119.642 131.975 122.853C136.848 127.844 147.062 121.677 139.828 114.048L144.502 118.835C146.284 120.66 147.486 122.853 148.109 125.175C148.168 125.394 148.222 125.615 148.27 125.836C148.298 125.963 148.325 126.09 148.349 126.218Z" fill="#5F6DFF" fill-opacity="0.8"/>
<path d="M148.445 131.217C148.87 127.145 142.382 125.328 139.037 131.99C135.692 138.653 128.444 141.381 123.11 137.288C123.11 137.288 123.11 137.288 123.11 137.288C122.96 137.071 122.817 136.851 122.681 136.628C121.229 134.259 120.518 131.55 120.546 128.847C121.038 127.913 121.906 127.194 122.964 127.015C125.314 126.618 127.048 129.016 128.915 130.048C130.441 130.891 132.552 131.482 134.143 130.484C135.764 129.469 136.902 127.722 138.443 126.566C141.626 124.176 145.201 124.309 148.349 126.218C148.504 127.029 148.591 127.852 148.609 128.676C148.628 129.525 148.573 130.376 148.445 131.217Z" fill="#5665FF" fill-opacity="0.9"/>
<path d="M131.975 122.853C128.84 119.642 124.479 118.411 122.121 122.374C122.626 121.375 123.255 120.425 124.006 119.547C124.212 119.304 124.429 119.067 124.655 118.835L133.654 109.619C134.165 109.095 134.993 109.095 135.504 109.619L139.28 113.487L139.828 114.048C147.062 121.677 136.848 127.844 131.975 122.853Z" fill="#5D6BFF" fill-opacity="0.7"/>
<path d="M148.445 131.217C148.445 131.217 148.445 131.217 148.445 131.218C148.005 134.127 146.69 136.923 144.502 139.164C139.022 144.778 130.135 144.778 124.655 139.164C124.079 138.575 123.565 137.947 123.11 137.288C128.444 141.381 135.692 138.653 139.037 131.99C142.382 125.328 148.87 127.145 148.445 131.217Z" fill="#5160FF"/>
<path d="M126.958 124.056C126.017 123.733 125.434 122.924 125.655 122.25C125.876 121.575 126.817 121.291 127.758 121.614C128.699 121.938 129.282 122.747 129.061 123.421C128.84 124.095 127.898 124.38 126.958 124.056Z" fill="#8690F7"/>
<path d="M124.147 133.475C122.744 132.992 121.874 131.786 122.204 130.78C122.533 129.774 123.938 129.35 125.341 129.832C126.743 130.315 127.613 131.521 127.284 132.527C126.954 133.533 125.55 133.957 124.147 133.475Z" fill="#7884FA"/>
<path d="M144.176 134.805C142.895 135.563 141.436 135.432 140.918 134.513C140.4 133.594 141.019 132.235 142.301 131.477C143.582 130.72 145.041 130.85 145.559 131.769C146.077 132.688 145.458 134.047 144.176 134.805Z" fill="#6B78FC"/>
<path d="M345.226 116.48C346.318 116.48 347.266 116.66 348.07 117.02C348.886 117.38 349.51 117.896 349.942 118.568C350.374 119.24 350.59 120.038 350.59 120.962C350.59 121.874 350.374 122.672 349.942 123.356C349.51 124.028 348.886 124.544 348.07 124.904C347.266 125.264 346.318 125.444 345.226 125.444H342.382V129.08H340.042V116.48H345.226ZM345.118 123.464C346.138 123.464 346.912 123.248 347.44 122.816C347.968 122.384 348.232 121.766 348.232 120.962C348.232 120.158 347.968 119.54 347.44 119.108C346.912 118.676 346.138 118.46 345.118 118.46H342.382V123.464H345.118ZM354.765 120.872C355.413 119.864 356.553 119.36 358.185 119.36V121.502C357.993 121.466 357.819 121.448 357.663 121.448C356.787 121.448 356.103 121.706 355.611 122.222C355.119 122.726 354.873 123.458 354.873 124.418V129.08H352.623V119.468H354.765V120.872ZM364.326 129.206C363.354 129.206 362.478 128.996 361.698 128.576C360.918 128.156 360.306 127.574 359.862 126.83C359.43 126.074 359.214 125.222 359.214 124.274C359.214 123.326 359.43 122.48 359.862 121.736C360.306 120.992 360.918 120.41 361.698 119.99C362.478 119.57 363.354 119.36 364.326 119.36C365.31 119.36 366.192 119.57 366.972 119.99C367.752 120.41 368.358 120.992 368.79 121.736C369.234 122.48 369.456 123.326 369.456 124.274C369.456 125.222 369.234 126.074 368.79 126.83C368.358 127.574 367.752 128.156 366.972 128.576C366.192 128.996 365.31 129.206 364.326 129.206ZM364.326 127.28C365.154 127.28 365.838 127.004 366.378 126.452C366.918 125.9 367.188 125.174 367.188 124.274C367.188 123.374 366.918 122.648 366.378 122.096C365.838 121.544 365.154 121.268 364.326 121.268C363.498 121.268 362.814 121.544 362.274 122.096C361.746 122.648 361.482 123.374 361.482 124.274C361.482 125.174 361.746 125.9 362.274 126.452C362.814 127.004 363.498 127.28 364.326 127.28ZM370.617 132.698C369.669 132.698 368.949 132.512 368.457 132.14L369.105 130.466C369.441 130.718 369.879 130.844 370.419 130.844C370.839 130.844 371.157 130.712 371.373 130.448C371.601 130.196 371.715 129.818 371.715 129.314V119.468H373.965V129.26C373.965 130.328 373.671 131.168 373.083 131.78C372.495 132.392 371.673 132.698 370.617 132.698ZM372.831 117.884C372.423 117.884 372.081 117.758 371.805 117.506C371.529 117.242 371.391 116.918 371.391 116.534C371.391 116.15 371.529 115.832 371.805 115.58C372.081 115.316 372.423 115.184 372.831 115.184C373.239 115.184 373.581 115.31 373.857 115.562C374.133 115.802 374.271 116.108 374.271 116.48C374.271 116.876 374.133 117.212 373.857 117.488C373.593 117.752 373.251 117.884 372.831 117.884ZM385.952 124.328C385.952 124.484 385.94 124.706 385.916 124.994H378.374C378.506 125.702 378.848 126.266 379.4 126.686C379.964 127.094 380.66 127.298 381.488 127.298C382.544 127.298 383.414 126.95 384.098 126.254L385.304 127.64C384.872 128.156 384.326 128.546 383.666 128.81C383.006 129.074 382.262 129.206 381.434 129.206C380.378 129.206 379.448 128.996 378.644 128.576C377.84 128.156 377.216 127.574 376.772 126.83C376.34 126.074 376.124 125.222 376.124 124.274C376.124 123.338 376.334 122.498 376.754 121.754C377.186 120.998 377.78 120.41 378.536 119.99C379.292 119.57 380.144 119.36 381.092 119.36C382.028 119.36 382.862 119.57 383.594 119.99C384.338 120.398 384.914 120.98 385.322 121.736C385.742 122.48 385.952 123.344 385.952 124.328ZM381.092 121.16C380.372 121.16 379.76 121.376 379.256 121.808C378.764 122.228 378.464 122.792 378.356 123.5H383.81C383.714 122.804 383.42 122.24 382.928 121.808C382.436 121.376 381.824 121.16 381.092 121.16ZM392.523 129.206C391.527 129.206 390.633 128.996 389.841 128.576C389.049 128.156 388.431 127.574 387.987 126.83C387.543 126.074 387.321 125.222 387.321 124.274C387.321 123.326 387.543 122.48 387.987 121.736C388.431 120.992 389.043 120.41 389.823 119.99C390.615 119.57 391.515 119.36 392.523 119.36C393.471 119.36 394.299 119.552 395.007 119.936C395.727 120.32 396.267 120.872 396.627 121.592L394.899 122.6C394.623 122.156 394.275 121.826 393.855 121.61C393.447 121.382 392.997 121.268 392.505 121.268C391.665 121.268 390.969 121.544 390.417 122.096C389.865 122.636 389.589 123.362 389.589 124.274C389.589 125.186 389.859 125.918 390.399 126.47C390.951 127.01 391.653 127.28 392.505 127.28C392.997 127.28 393.447 127.172 393.855 126.956C394.275 126.728 394.623 126.392 394.899 125.948L396.627 126.956C396.255 127.676 395.709 128.234 394.989 128.63C394.281 129.014 393.459 129.206 392.523 129.206ZM404.473 128.558C404.209 128.774 403.885 128.936 403.501 129.044C403.129 129.152 402.733 129.206 402.313 129.206C401.257 129.206 400.441 128.93 399.865 128.378C399.289 127.826 399.001 127.022 399.001 125.966V121.34H397.417V119.54H399.001V117.344H401.251V119.54H403.825V121.34H401.251V125.912C401.251 126.38 401.365 126.74 401.593 126.992C401.821 127.232 402.151 127.352 402.583 127.352C403.087 127.352 403.507 127.22 403.843 126.956L404.473 128.558ZM409.294 129.206C408.514 129.206 407.752 129.104 407.008 128.9C406.264 128.696 405.67 128.438 405.226 128.126L406.09 126.416C406.522 126.704 407.038 126.938 407.638 127.118C408.25 127.286 408.85 127.37 409.438 127.37C410.782 127.37 411.454 127.016 411.454 126.308C411.454 125.972 411.28 125.738 410.932 125.606C410.596 125.474 410.05 125.348 409.294 125.228C408.502 125.108 407.854 124.97 407.35 124.814C406.858 124.658 406.426 124.388 406.054 124.004C405.694 123.608 405.514 123.062 405.514 122.366C405.514 121.454 405.892 120.728 406.648 120.188C407.416 119.636 408.448 119.36 409.744 119.36C410.404 119.36 411.064 119.438 411.724 119.594C412.384 119.738 412.924 119.936 413.344 120.188L412.48 121.898C411.664 121.418 410.746 121.178 409.726 121.178C409.066 121.178 408.562 121.28 408.214 121.484C407.878 121.676 407.71 121.934 407.71 122.258C407.71 122.618 407.89 122.876 408.25 123.032C408.622 123.176 409.192 123.314 409.96 123.446C410.728 123.566 411.358 123.704 411.85 123.86C412.342 124.016 412.762 124.28 413.11 124.652C413.47 125.024 413.65 125.552 413.65 126.236C413.65 127.136 413.26 127.856 412.48 128.396C411.7 128.936 410.638 129.206 409.294 129.206Z" fill="#CBCBCB"/>
<path d="M443.436 116.185H448.638C449.908 116.185 451.035 116.435 452.021 116.933C453.007 117.421 453.772 118.118 454.316 119.024C454.86 119.92 455.132 120.957 455.132 122.135C455.132 123.314 454.86 124.357 454.316 125.263C453.772 126.159 453.007 126.856 452.021 127.354C451.035 127.842 449.908 128.085 448.638 128.085H443.436V116.185ZM448.536 126.215C449.409 126.215 450.174 126.051 450.831 125.722C451.5 125.382 452.01 124.906 452.361 124.294C452.724 123.671 452.905 122.951 452.905 122.135C452.905 121.319 452.724 120.605 452.361 119.993C452.01 119.37 451.5 118.894 450.831 118.565C450.174 118.225 449.409 118.055 448.536 118.055H445.646V126.215H448.536ZM457.277 119.007H459.402V128.085H457.277V119.007ZM458.348 117.511C457.963 117.511 457.64 117.392 457.379 117.154C457.119 116.905 456.988 116.599 456.988 116.236C456.988 115.874 457.119 115.573 457.379 115.335C457.64 115.086 457.963 114.961 458.348 114.961C458.734 114.961 459.057 115.08 459.317 115.318C459.578 115.545 459.708 115.834 459.708 116.185C459.708 116.559 459.578 116.877 459.317 117.137C459.068 117.387 458.745 117.511 458.348 117.511ZM464.996 128.204C464.26 128.204 463.54 128.108 462.837 127.915C462.135 127.723 461.574 127.479 461.154 127.184L461.97 125.569C462.378 125.841 462.866 126.062 463.432 126.232C464.01 126.391 464.577 126.47 465.132 126.47C466.402 126.47 467.036 126.136 467.036 125.467C467.036 125.15 466.872 124.929 466.543 124.804C466.226 124.68 465.71 124.561 464.996 124.447C464.248 124.334 463.636 124.204 463.16 124.056C462.696 123.909 462.288 123.654 461.936 123.291C461.596 122.917 461.426 122.402 461.426 121.744C461.426 120.883 461.783 120.197 462.497 119.687C463.223 119.166 464.197 118.905 465.421 118.905C466.045 118.905 466.668 118.979 467.291 119.126C467.915 119.262 468.425 119.449 468.821 119.687L468.005 121.302C467.235 120.849 466.368 120.622 465.404 120.622C464.781 120.622 464.305 120.719 463.976 120.911C463.659 121.093 463.5 121.336 463.5 121.642C463.5 121.982 463.67 122.226 464.01 122.373C464.362 122.509 464.9 122.64 465.625 122.764C466.351 122.878 466.946 123.008 467.41 123.155C467.875 123.303 468.272 123.552 468.6 123.903C468.94 124.255 469.11 124.753 469.11 125.399C469.11 126.249 468.742 126.929 468.005 127.439C467.269 127.949 466.266 128.204 464.996 128.204ZM475.105 128.204C474.165 128.204 473.32 128.006 472.572 127.609C471.824 127.213 471.241 126.663 470.821 125.96C470.402 125.246 470.192 124.442 470.192 123.546C470.192 122.651 470.402 121.852 470.821 121.149C471.241 120.447 471.819 119.897 472.555 119.5C473.303 119.104 474.153 118.905 475.105 118.905C476.001 118.905 476.783 119.087 477.451 119.449C478.131 119.812 478.641 120.333 478.981 121.013L477.349 121.965C477.089 121.546 476.76 121.234 476.363 121.03C475.978 120.815 475.553 120.707 475.088 120.707C474.295 120.707 473.638 120.968 473.116 121.489C472.595 121.999 472.334 122.685 472.334 123.546C472.334 124.408 472.589 125.099 473.099 125.62C473.621 126.13 474.284 126.385 475.088 126.385C475.553 126.385 475.978 126.283 476.363 126.079C476.76 125.864 477.089 125.547 477.349 125.127L478.981 126.079C478.63 126.759 478.114 127.286 477.434 127.66C476.766 128.023 475.989 128.204 475.105 128.204ZM484.765 128.204C483.847 128.204 483.02 128.006 482.283 127.609C481.547 127.213 480.969 126.663 480.549 125.96C480.141 125.246 479.937 124.442 479.937 123.546C479.937 122.651 480.141 121.852 480.549 121.149C480.969 120.447 481.547 119.897 482.283 119.5C483.02 119.104 483.847 118.905 484.765 118.905C485.695 118.905 486.528 119.104 487.264 119.5C488.001 119.897 488.573 120.447 488.981 121.149C489.401 121.852 489.61 122.651 489.61 123.546C489.61 124.442 489.401 125.246 488.981 125.96C488.573 126.663 488.001 127.213 487.264 127.609C486.528 128.006 485.695 128.204 484.765 128.204ZM484.765 126.385C485.547 126.385 486.193 126.125 486.703 125.603C487.213 125.082 487.468 124.396 487.468 123.546C487.468 122.696 487.213 122.011 486.703 121.489C486.193 120.968 485.547 120.707 484.765 120.707C483.983 120.707 483.337 120.968 482.827 121.489C482.329 122.011 482.079 122.696 482.079 123.546C482.079 124.396 482.329 125.082 482.827 125.603C483.337 126.125 483.983 126.385 484.765 126.385ZM499.893 119.007L496 128.085H493.807L489.914 119.007H492.124L494.946 125.739L497.853 119.007H499.893ZM509.507 123.597C509.507 123.745 509.495 123.954 509.473 124.226H502.35C502.474 124.895 502.797 125.428 503.319 125.824C503.851 126.21 504.509 126.402 505.291 126.402C506.288 126.402 507.11 126.074 507.756 125.416L508.895 126.725C508.487 127.213 507.971 127.581 507.348 127.83C506.724 128.08 506.022 128.204 505.24 128.204C504.242 128.204 503.364 128.006 502.605 127.609C501.845 127.213 501.256 126.663 500.837 125.96C500.429 125.246 500.225 124.442 500.225 123.546C500.225 122.662 500.423 121.869 500.82 121.166C501.228 120.452 501.789 119.897 502.503 119.5C503.217 119.104 504.021 118.905 504.917 118.905C505.801 118.905 506.588 119.104 507.28 119.5C507.982 119.886 508.526 120.435 508.912 121.149C509.308 121.852 509.507 122.668 509.507 123.597ZM504.917 120.605C504.237 120.605 503.659 120.809 503.183 121.217C502.718 121.614 502.435 122.147 502.333 122.815H507.484C507.393 122.158 507.115 121.625 506.651 121.217C506.186 120.809 505.608 120.605 504.917 120.605ZM513.571 120.333C514.183 119.381 515.259 118.905 516.801 118.905V120.928C516.619 120.894 516.455 120.877 516.308 120.877C515.48 120.877 514.834 121.121 514.37 121.608C513.905 122.084 513.673 122.776 513.673 123.682V128.085H511.548V119.007H513.571V120.333Z" fill="#5261FF"/>
<path d="M564.586 129.08L564.566 119.8L559.966 127.48H558.806L554.206 119.92V129.08H551.726V115.08H553.866L559.426 124.36L564.886 115.08H567.026L567.046 129.08H564.586ZM575.388 129.22C574.308 129.22 573.334 128.987 572.468 128.52C571.601 128.054 570.921 127.407 570.428 126.58C569.948 125.74 569.708 124.794 569.708 123.74C569.708 122.687 569.948 121.747 570.428 120.92C570.921 120.094 571.601 119.447 572.468 118.98C573.334 118.514 574.308 118.28 575.388 118.28C576.481 118.28 577.461 118.514 578.328 118.98C579.194 119.447 579.868 120.094 580.348 120.92C580.841 121.747 581.088 122.687 581.088 123.74C581.088 124.794 580.841 125.74 580.348 126.58C579.868 127.407 579.194 128.054 578.328 128.52C577.461 128.987 576.481 129.22 575.388 129.22ZM575.388 127.08C576.308 127.08 577.068 126.774 577.668 126.16C578.268 125.547 578.568 124.74 578.568 123.74C578.568 122.74 578.268 121.934 577.668 121.32C577.068 120.707 576.308 120.4 575.388 120.4C574.468 120.4 573.708 120.707 573.108 121.32C572.521 121.934 572.228 122.74 572.228 123.74C572.228 124.74 572.521 125.547 573.108 126.16C573.708 126.774 574.468 127.08 575.388 127.08ZM585.858 119.96C586.578 118.84 587.845 118.28 589.658 118.28V120.66C589.445 120.62 589.252 120.6 589.078 120.6C588.105 120.6 587.345 120.887 586.798 121.46C586.252 122.02 585.978 122.834 585.978 123.9V129.08H583.478V118.4H585.858V119.96ZM601.722 123.8C601.722 123.974 601.708 124.22 601.682 124.54H593.302C593.448 125.327 593.828 125.954 594.442 126.42C595.068 126.874 595.842 127.1 596.762 127.1C597.935 127.1 598.902 126.714 599.662 125.94L601.002 127.48C600.522 128.054 599.915 128.487 599.182 128.78C598.448 129.074 597.622 129.22 596.702 129.22C595.528 129.22 594.495 128.987 593.602 128.52C592.708 128.054 592.015 127.407 591.522 126.58C591.042 125.74 590.802 124.794 590.802 123.74C590.802 122.7 591.035 121.767 591.502 120.94C591.982 120.1 592.642 119.447 593.482 118.98C594.322 118.514 595.268 118.28 596.322 118.28C597.362 118.28 598.288 118.514 599.102 118.98C599.928 119.434 600.568 120.08 601.022 120.92C601.488 121.747 601.722 122.707 601.722 123.8ZM596.322 120.28C595.522 120.28 594.842 120.52 594.282 121C593.735 121.467 593.402 122.094 593.282 122.88H599.342C599.235 122.107 598.908 121.48 598.362 121C597.815 120.52 597.135 120.28 596.322 120.28Z" fill="#CBCBCB"/>
<rect x="162" y="228" width="578" height="39" rx="5" fill="#282E3B"/>
<rect x="162" y="284" width="260" height="54" rx="5" fill="#282E3B"/>
<rect x="162" y="191" width="57" height="20" rx="5" fill="#282E3B"/>
<rect x="235" y="191" width="57" height="20" rx="5" fill="#282E3B"/>
<rect x="315" y="191" width="57" height="20" rx="5" fill="#282E3B"/>
<rect x="390" y="191" width="57" height="20" rx="5" fill="#282E3B"/>
<rect x="451" y="284" width="289" height="54" rx="5" fill="#282E3B"/>
<rect x="162" y="355" width="578" height="54" rx="5" fill="#282E3B"/>
<rect x="163" y="426" width="578" height="54" rx="5" fill="#282E3B"/>
<circle cx="762" cy="123" r="21" fill="#272D3D"/>
</g>
<defs>
<filter id="filter0_d" x="0" y="0" width="898" height="611.466" filterUnits="userSpaceOnUse" color-interpolation-filters="sRGB">
<feFlood flood-opacity="0" result="BackgroundImageFix"/>
<feColorMatrix in="SourceAlpha" type="matrix" values="0 0 0 0 0 0 0 0 0 0 0 0 0 0 0 0 0 0 127 0" result="hardAlpha"/>
<feOffset dx="-3" dy="4"/>
<feGaussianBlur stdDeviation="48.5"/>
<feComposite in2="hardAlpha" operator="out"/>
<feColorMatrix type="matrix" values="0 0 0 0 0 0 0 0 0 0 0 0 0 0 0 0 0 0 0.25 0"/>
<feBlend mode="normal" in2="BackgroundImageFix" result="effect1_dropShadow"/>
<feBlend mode="normal" in="SourceGraphic" in2="effect1_dropShadow" result="shape"/>
</filter>
</defs>
</svg>
