<svg width="712" height="426" viewBox="0 0 712 426" fill="none" xmlns="http://www.w3.org/2000/svg">
<g filter="url(#filter0_d)">
<rect x="4" width="704" height="417.466" rx="26" fill="#242832"/>
<path d="M4 26C4 11.6406 15.6406 0 30 0H682C696.359 0 708 11.6406 708 26V54.5553H4V26Z" fill="#23272A"/>
<path d="M52.349 33.2177C49.2006 31.309 45.6263 31.176 42.4428 33.566C40.9022 34.7223 39.7644 36.4692 38.1434 37.4845C36.5517 38.4816 34.4411 37.8915 32.9154 37.0483C31.0484 36.0165 29.3137 33.6179 26.9636 34.0152C25.9062 34.1939 25.0382 34.9127 24.5456 35.8475C24.5504 35.3673 24.579 34.8871 24.6302 34.4099C24.8178 32.6716 25.3147 30.9619 26.1207 29.3736C28.4785 25.4106 32.8398 26.6419 35.975 29.8526C40.848 34.8444 51.0616 28.6774 43.8278 21.0479L48.5024 25.8353C50.2842 27.6603 51.4863 29.8532 52.1089 32.1755C52.1685 32.3945 52.2221 32.6148 52.2703 32.8363C52.2983 32.9632 52.3245 33.0901 52.349 33.2177Z" fill="#5D6BFF" fill-opacity="0.8"/>
<path d="M52.4454 38.2167C52.8696 34.1451 46.3822 32.3281 43.0373 38.9904C39.6923 45.6528 32.4442 48.3815 27.1102 44.2884C27.1102 44.2878 27.1096 44.2878 27.1096 44.2878C26.9601 44.0712 26.8171 43.851 26.6807 43.6282C25.2295 41.259 24.5176 38.5498 24.5456 35.8474C25.0382 34.9126 25.9062 34.1939 26.9636 34.0151C29.3137 33.6179 31.0485 36.0165 32.9154 37.0482C34.4411 37.8915 36.5517 38.4815 38.1434 37.4845C39.7644 36.4692 40.9022 34.7223 42.4428 33.566C45.6263 31.176 49.2006 31.309 52.349 33.2176C52.5045 34.0291 52.5914 34.8522 52.6093 35.676C52.6278 36.5254 52.5729 37.3759 52.4454 38.2167Z" fill="#5D6BFF" fill-opacity="0.9"/>
<path d="M35.975 29.8526C32.8398 26.6419 28.4785 25.4106 26.1207 29.3736C26.6264 28.3754 27.2549 27.4254 28.0061 26.5468C28.2122 26.3039 28.4291 26.0666 28.6549 25.8353L37.6539 16.6186C38.1648 16.0954 38.9931 16.0954 39.5039 16.6187L43.2803 20.4872L43.8278 21.048C51.0616 28.6774 40.848 34.8444 35.975 29.8526Z" fill="#5D6BFF" fill-opacity="0.7"/>
<path d="M52.4455 38.2167C52.4455 38.2174 52.4455 38.2174 52.4455 38.2179C52.0046 41.1266 50.6899 43.923 48.5024 46.1641C43.0218 51.7776 34.1355 51.7776 28.6549 46.1641C28.0794 45.5747 27.5647 44.9468 27.1102 44.2884C32.4443 48.3814 39.6923 45.6528 43.0373 38.9904C46.3822 32.3281 52.8696 34.1451 52.4455 38.2167Z" fill="#5D6BFF"/>
<path d="M30.9576 31.0564C30.0171 30.733 29.4337 29.9242 29.6548 29.2498C29.8758 28.5754 30.8174 28.2909 31.758 28.6143C32.6985 28.9377 33.2819 29.7465 33.0608 30.4209C32.8398 31.0952 31.8982 31.3798 30.9576 31.0564Z" fill="#8690F7"/>
<path d="M28.1469 40.4745C26.7441 39.9922 25.8741 38.7859 26.2037 37.7801C26.5334 36.7743 27.9378 36.3499 29.3406 36.8323C30.7434 37.3146 31.6134 38.5209 31.2837 39.5267C30.9541 40.5325 29.5497 40.9568 28.1469 40.4745Z" fill="#7884FA"/>
<path d="M48.1764 41.8047C46.8949 42.5625 45.4362 42.432 44.9183 41.5132C44.4004 40.5944 45.0194 39.2352 46.3008 38.4774C47.5823 37.7196 49.041 37.8501 49.5589 38.7689C50.0769 39.6877 49.4578 41.0469 48.1764 41.8047Z" fill="#6B78FC"/>
<path d="M52.349 33.2177C49.2006 31.309 45.6263 31.176 42.4428 33.566C40.9022 34.7223 39.7644 36.4692 38.1434 37.4845C36.5517 38.4816 34.4411 37.8915 32.9154 37.0483C31.0484 36.0165 29.3137 33.6179 26.9636 34.0152C25.9062 34.1939 25.0382 34.9127 24.5456 35.8475C24.5504 35.3673 24.579 34.8871 24.6302 34.4099C24.8178 32.6716 25.3147 30.9619 26.1207 29.3736C28.4785 25.4106 32.8398 26.6419 35.975 29.8526C40.848 34.8444 51.0616 28.6774 43.8278 21.0479L48.5024 25.8353C50.2842 27.6603 51.4863 29.8532 52.1089 32.1755C52.1685 32.3945 52.2221 32.6148 52.2703 32.8363C52.2983 32.9632 52.3245 33.0901 52.349 33.2177Z" fill="#5F6DFF" fill-opacity="0.8"/>
<path d="M52.4454 38.2167C52.8696 34.1451 46.3822 32.3281 43.0373 38.9904C39.6923 45.6528 32.4442 48.3815 27.1102 44.2884C27.1102 44.2878 27.1096 44.2878 27.1096 44.2878C26.9601 44.0712 26.8171 43.851 26.6807 43.6282C25.2295 41.259 24.5176 38.5498 24.5456 35.8474C25.0382 34.9126 25.9062 34.1939 26.9636 34.0151C29.3137 33.6179 31.0485 36.0165 32.9154 37.0482C34.4411 37.8915 36.5517 38.4815 38.1434 37.4845C39.7644 36.4692 40.9022 34.7223 42.4428 33.566C45.6263 31.176 49.2006 31.309 52.349 33.2176C52.5045 34.0291 52.5914 34.8522 52.6093 35.676C52.6278 36.5254 52.5729 37.3759 52.4454 38.2167Z" fill="#5665FF" fill-opacity="0.9"/>
<path d="M35.975 29.8526C32.8398 26.6419 28.4785 25.4106 26.1207 29.3736C26.6264 28.3754 27.2549 27.4254 28.0061 26.5468C28.2122 26.3039 28.4291 26.0666 28.6549 25.8353L37.6539 16.6186C38.1648 16.0954 38.9931 16.0954 39.5039 16.6187L43.2803 20.4872L43.8278 21.048C51.0616 28.6774 40.848 34.8444 35.975 29.8526Z" fill="#5D6BFF" fill-opacity="0.7"/>
<path d="M52.4455 38.2167C52.4455 38.2174 52.4455 38.2174 52.4455 38.2179C52.0046 41.1266 50.6899 43.923 48.5024 46.1641C43.0218 51.7776 34.1355 51.7776 28.6549 46.1641C28.0794 45.5747 27.5647 44.9468 27.1102 44.2884C32.4443 48.3814 39.6923 45.6528 43.0373 38.9904C46.3822 32.3281 52.8696 34.1451 52.4455 38.2167Z" fill="#5160FF"/>
<path d="M30.9576 31.0564C30.0171 30.733 29.4337 29.9242 29.6548 29.2498C29.8758 28.5754 30.8174 28.2909 31.758 28.6143C32.6985 28.9377 33.2819 29.7465 33.0608 30.4209C32.8398 31.0952 31.8982 31.3798 30.9576 31.0564Z" fill="#8690F7"/>
<path d="M28.1469 40.4745C26.7441 39.9922 25.8741 38.7859 26.2037 37.7801C26.5334 36.7743 27.9378 36.3499 29.3406 36.8323C30.7434 37.3146 31.6134 38.5209 31.2837 39.5267C30.9541 40.5325 29.5497 40.9568 28.1469 40.4745Z" fill="#7884FA"/>
<path d="M48.1764 41.8047C46.8949 42.5625 45.4362 42.432 44.9183 41.5132C44.4004 40.5944 45.0194 39.2352 46.3008 38.4774C47.5823 37.7196 49.041 37.8501 49.5589 38.7689C50.0769 39.6877 49.4578 41.0469 48.1764 41.8047Z" fill="#6B78FC"/>
<path d="M249.226 23.4804C250.318 23.4804 251.266 23.6604 252.07 24.0204C252.886 24.3804 253.51 24.8964 253.942 25.5684C254.374 26.2404 254.59 27.0384 254.59 27.9624C254.59 28.8744 254.374 29.6724 253.942 30.3564C253.51 31.0284 252.886 31.5444 252.07 31.9044C251.266 32.2644 250.318 32.4444 249.226 32.4444H246.382V36.0804H244.042V23.4804H249.226ZM249.118 30.4644C250.138 30.4644 250.912 30.2484 251.44 29.8164C251.968 29.3844 252.232 28.7664 252.232 27.9624C252.232 27.1584 251.968 26.5404 251.44 26.1084C250.912 25.6764 250.138 25.4604 249.118 25.4604H246.382V30.4644H249.118ZM258.765 27.8724C259.413 26.8644 260.553 26.3604 262.185 26.3604V28.5024C261.993 28.4664 261.819 28.4484 261.663 28.4484C260.787 28.4484 260.103 28.7064 259.611 29.2224C259.119 29.7264 258.873 30.4584 258.873 31.4184V36.0804H256.623V26.4684H258.765V27.8724ZM268.326 36.2064C267.354 36.2064 266.478 35.9964 265.698 35.5764C264.918 35.1564 264.306 34.5744 263.862 33.8304C263.43 33.0744 263.214 32.2224 263.214 31.2744C263.214 30.3264 263.43 29.4804 263.862 28.7364C264.306 27.9924 264.918 27.4104 265.698 26.9904C266.478 26.5704 267.354 26.3604 268.326 26.3604C269.31 26.3604 270.192 26.5704 270.972 26.9904C271.752 27.4104 272.358 27.9924 272.79 28.7364C273.234 29.4804 273.456 30.3264 273.456 31.2744C273.456 32.2224 273.234 33.0744 272.79 33.8304C272.358 34.5744 271.752 35.1564 270.972 35.5764C270.192 35.9964 269.31 36.2064 268.326 36.2064ZM268.326 34.2804C269.154 34.2804 269.838 34.0044 270.378 33.4524C270.918 32.9004 271.188 32.1744 271.188 31.2744C271.188 30.3744 270.918 29.6484 270.378 29.0964C269.838 28.5444 269.154 28.2684 268.326 28.2684C267.498 28.2684 266.814 28.5444 266.274 29.0964C265.746 29.6484 265.482 30.3744 265.482 31.2744C265.482 32.1744 265.746 32.9004 266.274 33.4524C266.814 34.0044 267.498 34.2804 268.326 34.2804ZM274.617 39.6984C273.669 39.6984 272.949 39.5124 272.457 39.1404L273.105 37.4664C273.441 37.7184 273.879 37.8444 274.419 37.8444C274.839 37.8444 275.157 37.7124 275.373 37.4484C275.601 37.1964 275.715 36.8184 275.715 36.3144V26.4684H277.965V36.2604C277.965 37.3284 277.671 38.1684 277.083 38.7804C276.495 39.3924 275.673 39.6984 274.617 39.6984ZM276.831 24.8844C276.423 24.8844 276.081 24.7584 275.805 24.5064C275.529 24.2424 275.391 23.9184 275.391 23.5344C275.391 23.1504 275.529 22.8324 275.805 22.5804C276.081 22.3164 276.423 22.1844 276.831 22.1844C277.239 22.1844 277.581 22.3104 277.857 22.5624C278.133 22.8024 278.271 23.1084 278.271 23.4804C278.271 23.8764 278.133 24.2124 277.857 24.4884C277.593 24.7524 277.251 24.8844 276.831 24.8844ZM289.952 31.3284C289.952 31.4844 289.94 31.7064 289.916 31.9944H282.374C282.506 32.7024 282.848 33.2664 283.4 33.6864C283.964 34.0944 284.66 34.2984 285.488 34.2984C286.544 34.2984 287.414 33.9504 288.098 33.2544L289.304 34.6404C288.872 35.1564 288.326 35.5464 287.666 35.8104C287.006 36.0744 286.262 36.2064 285.434 36.2064C284.378 36.2064 283.448 35.9964 282.644 35.5764C281.84 35.1564 281.216 34.5744 280.772 33.8304C280.34 33.0744 280.124 32.2224 280.124 31.2744C280.124 30.3384 280.334 29.4984 280.754 28.7544C281.186 27.9984 281.78 27.4104 282.536 26.9904C283.292 26.5704 284.144 26.3604 285.092 26.3604C286.028 26.3604 286.862 26.5704 287.594 26.9904C288.338 27.3984 288.914 27.9804 289.322 28.7364C289.742 29.4804 289.952 30.3444 289.952 31.3284ZM285.092 28.1604C284.372 28.1604 283.76 28.3764 283.256 28.8084C282.764 29.2284 282.464 29.7924 282.356 30.5004H287.81C287.714 29.8044 287.42 29.2404 286.928 28.8084C286.436 28.3764 285.824 28.1604 285.092 28.1604ZM296.523 36.2064C295.527 36.2064 294.633 35.9964 293.841 35.5764C293.049 35.1564 292.431 34.5744 291.987 33.8304C291.543 33.0744 291.321 32.2224 291.321 31.2744C291.321 30.3264 291.543 29.4804 291.987 28.7364C292.431 27.9924 293.043 27.4104 293.823 26.9904C294.615 26.5704 295.515 26.3604 296.523 26.3604C297.471 26.3604 298.299 26.5524 299.007 26.9364C299.727 27.3204 300.267 27.8724 300.627 28.5924L298.899 29.6004C298.623 29.1564 298.275 28.8264 297.855 28.6104C297.447 28.3824 296.997 28.2684 296.505 28.2684C295.665 28.2684 294.969 28.5444 294.417 29.0964C293.865 29.6364 293.589 30.3624 293.589 31.2744C293.589 32.1864 293.859 32.9184 294.399 33.4704C294.951 34.0104 295.653 34.2804 296.505 34.2804C296.997 34.2804 297.447 34.1724 297.855 33.9564C298.275 33.7284 298.623 33.3924 298.899 32.9484L300.627 33.9564C300.255 34.6764 299.709 35.2344 298.989 35.6304C298.281 36.0144 297.459 36.2064 296.523 36.2064ZM308.473 35.5584C308.209 35.7744 307.885 35.9364 307.501 36.0444C307.129 36.1524 306.733 36.2064 306.313 36.2064C305.257 36.2064 304.441 35.9304 303.865 35.3784C303.289 34.8264 303.001 34.0224 303.001 32.9664V28.3404H301.417V26.5404H303.001V24.3444H305.251V26.5404H307.825V28.3404H305.251V32.9124C305.251 33.3804 305.365 33.7404 305.593 33.9924C305.821 34.2324 306.151 34.3524 306.583 34.3524C307.087 34.3524 307.507 34.2204 307.843 33.9564L308.473 35.5584ZM313.294 36.2064C312.514 36.2064 311.752 36.1044 311.008 35.9004C310.264 35.6964 309.67 35.4384 309.226 35.1264L310.09 33.4164C310.522 33.7044 311.038 33.9384 311.638 34.1184C312.25 34.2864 312.85 34.3704 313.438 34.3704C314.782 34.3704 315.454 34.0164 315.454 33.3084C315.454 32.9724 315.28 32.7384 314.932 32.6064C314.596 32.4744 314.05 32.3484 313.294 32.2284C312.502 32.1084 311.854 31.9704 311.35 31.8144C310.858 31.6584 310.426 31.3884 310.054 31.0044C309.694 30.6084 309.514 30.0624 309.514 29.3664C309.514 28.4544 309.892 27.7284 310.648 27.1884C311.416 26.6364 312.448 26.3604 313.744 26.3604C314.404 26.3604 315.064 26.4384 315.724 26.5944C316.384 26.7384 316.924 26.9364 317.344 27.1884L316.48 28.8984C315.664 28.4184 314.746 28.1784 313.726 28.1784C313.066 28.1784 312.562 28.2804 312.214 28.4844C311.878 28.6764 311.71 28.9344 311.71 29.2584C311.71 29.6184 311.89 29.8764 312.25 30.0324C312.622 30.1764 313.192 30.3144 313.96 30.4464C314.728 30.5664 315.358 30.7044 315.85 30.8604C316.342 31.0164 316.762 31.2804 317.11 31.6524C317.47 32.0244 317.65 32.5524 317.65 33.2364C317.65 34.1364 317.26 34.8564 316.48 35.3964C315.7 35.9364 314.638 36.2064 313.294 36.2064Z" fill="#638FFF"/>
<path d="M347.436 23.1851H352.638C353.908 23.1851 355.035 23.4345 356.021 23.9331C357.007 24.4205 357.772 25.1175 358.316 26.0241C358.86 26.9195 359.132 27.9565 359.132 29.1351C359.132 30.3138 358.86 31.3565 358.316 32.2631C357.772 33.1585 357.007 33.8555 356.021 34.3541C355.035 34.8415 353.908 35.0851 352.638 35.0851H347.436V23.1851ZM352.536 33.2151C353.409 33.2151 354.174 33.0508 354.831 32.7221C355.5 32.3821 356.01 31.9061 356.361 31.2941C356.724 30.6708 356.905 29.9511 356.905 29.1351C356.905 28.3191 356.724 27.6051 356.361 26.9931C356.01 26.3698 355.5 25.8938 354.831 25.5651C354.174 25.2251 353.409 25.0551 352.536 25.0551H349.646V33.2151H352.536ZM361.277 26.0071H363.402V35.0851H361.277V26.0071ZM362.348 24.5111C361.963 24.5111 361.64 24.3921 361.379 24.1541C361.119 23.9048 360.988 23.5988 360.988 23.2361C360.988 22.8735 361.119 22.5731 361.379 22.3351C361.64 22.0858 361.963 21.9611 362.348 21.9611C362.734 21.9611 363.057 22.0801 363.317 22.3181C363.578 22.5448 363.708 22.8338 363.708 23.1851C363.708 23.5591 363.578 23.8765 363.317 24.1371C363.068 24.3865 362.745 24.5111 362.348 24.5111ZM368.996 35.2041C368.26 35.2041 367.54 35.1078 366.837 34.9151C366.135 34.7225 365.574 34.4788 365.154 34.1841L365.97 32.5691C366.378 32.8411 366.866 33.0621 367.432 33.2321C368.01 33.3908 368.577 33.4701 369.132 33.4701C370.402 33.4701 371.036 33.1358 371.036 32.4671C371.036 32.1498 370.872 31.9288 370.543 31.8041C370.226 31.6795 369.71 31.5605 368.996 31.4471C368.248 31.3338 367.636 31.2035 367.16 31.0561C366.696 30.9088 366.288 30.6538 365.936 30.2911C365.596 29.9171 365.426 29.4015 365.426 28.7441C365.426 27.8828 365.783 27.1971 366.497 26.6871C367.223 26.1658 368.197 25.9051 369.421 25.9051C370.045 25.9051 370.668 25.9788 371.291 26.1261C371.915 26.2621 372.425 26.4491 372.821 26.6871L372.005 28.3021C371.235 27.8488 370.368 27.6221 369.404 27.6221C368.781 27.6221 368.305 27.7185 367.976 27.9111C367.659 28.0925 367.5 28.3361 367.5 28.6421C367.5 28.9821 367.67 29.2258 368.01 29.3731C368.362 29.5091 368.9 29.6395 369.625 29.7641C370.351 29.8775 370.946 30.0078 371.41 30.1551C371.875 30.3025 372.272 30.5518 372.6 30.9031C372.94 31.2545 373.11 31.7531 373.11 32.3991C373.11 33.2491 372.742 33.9291 372.005 34.4391C371.269 34.9491 370.266 35.2041 368.996 35.2041ZM379.105 35.2041C378.165 35.2041 377.32 35.0058 376.572 34.6091C375.824 34.2125 375.241 33.6628 374.821 32.9601C374.402 32.2461 374.192 31.4415 374.192 30.5461C374.192 29.6508 374.402 28.8518 374.821 28.1491C375.241 27.4465 375.819 26.8968 376.555 26.5001C377.303 26.1035 378.153 25.9051 379.105 25.9051C380.001 25.9051 380.783 26.0865 381.451 26.4491C382.131 26.8118 382.641 27.3331 382.981 28.0131L381.349 28.9651C381.089 28.5458 380.76 28.2341 380.363 28.0301C379.978 27.8148 379.553 27.7071 379.088 27.7071C378.295 27.7071 377.638 27.9678 377.116 28.4891C376.595 28.9991 376.334 29.6848 376.334 30.5461C376.334 31.4075 376.589 32.0988 377.099 32.6201C377.621 33.1301 378.284 33.3851 379.088 33.3851C379.553 33.3851 379.978 33.2831 380.363 33.0791C380.76 32.8638 381.089 32.5465 381.349 32.1271L382.981 33.0791C382.63 33.7591 382.114 34.2861 381.434 34.6601C380.766 35.0228 379.989 35.2041 379.105 35.2041ZM388.765 35.2041C387.847 35.2041 387.02 35.0058 386.283 34.6091C385.547 34.2125 384.969 33.6628 384.549 32.9601C384.141 32.2461 383.937 31.4415 383.937 30.5461C383.937 29.6508 384.141 28.8518 384.549 28.1491C384.969 27.4465 385.547 26.8968 386.283 26.5001C387.02 26.1035 387.847 25.9051 388.765 25.9051C389.695 25.9051 390.528 26.1035 391.264 26.5001C392.001 26.8968 392.573 27.4465 392.981 28.1491C393.401 28.8518 393.61 29.6508 393.61 30.5461C393.61 31.4415 393.401 32.2461 392.981 32.9601C392.573 33.6628 392.001 34.2125 391.264 34.6091C390.528 35.0058 389.695 35.2041 388.765 35.2041ZM388.765 33.3851C389.547 33.3851 390.193 33.1245 390.703 32.6031C391.213 32.0818 391.468 31.3961 391.468 30.5461C391.468 29.6961 391.213 29.0105 390.703 28.4891C390.193 27.9678 389.547 27.7071 388.765 27.7071C387.983 27.7071 387.337 27.9678 386.827 28.4891C386.329 29.0105 386.079 29.6961 386.079 30.5461C386.079 31.3961 386.329 32.0818 386.827 32.6031C387.337 33.1245 387.983 33.3851 388.765 33.3851ZM403.893 26.0071L400 35.0851H397.807L393.914 26.0071H396.124L398.946 32.7391L401.853 26.0071H403.893ZM413.507 30.5971C413.507 30.7445 413.495 30.9541 413.473 31.2261H406.35C406.474 31.8948 406.797 32.4275 407.319 32.8241C407.851 33.2095 408.509 33.4021 409.291 33.4021C410.288 33.4021 411.11 33.0735 411.756 32.4161L412.895 33.7251C412.487 34.2125 411.971 34.5808 411.348 34.8301C410.724 35.0795 410.022 35.2041 409.24 35.2041C408.242 35.2041 407.364 35.0058 406.605 34.6091C405.845 34.2125 405.256 33.6628 404.837 32.9601C404.429 32.2461 404.225 31.4415 404.225 30.5461C404.225 29.6621 404.423 28.8688 404.82 28.1661C405.228 27.4521 405.789 26.8968 406.503 26.5001C407.217 26.1035 408.021 25.9051 408.917 25.9051C409.801 25.9051 410.588 26.1035 411.28 26.5001C411.982 26.8855 412.526 27.4351 412.912 28.1491C413.308 28.8518 413.507 29.6678 413.507 30.5971ZM408.917 27.6051C408.237 27.6051 407.659 27.8091 407.183 28.2171C406.718 28.6138 406.435 29.1465 406.333 29.8151H411.484C411.393 29.1578 411.115 28.6251 410.651 28.2171C410.186 27.8091 409.608 27.6051 408.917 27.6051ZM417.571 27.3331C418.183 26.3811 419.259 25.9051 420.801 25.9051V27.9281C420.619 27.8941 420.455 27.8771 420.308 27.8771C419.48 27.8771 418.834 28.1208 418.37 28.6081C417.905 29.0841 417.673 29.7755 417.673 30.6821V35.0851H415.548V26.0071H417.571V27.3331Z" fill="#CBCBCB"/>
<path d="M468.586 36.0804L468.566 26.8004L463.966 34.4804H462.806L458.206 26.9204V36.0804H455.726V22.0804H457.866L463.426 31.3604L468.886 22.0804H471.026L471.046 36.0804H468.586ZM479.388 36.2204C478.308 36.2204 477.334 35.9871 476.468 35.5204C475.601 35.0538 474.921 34.4071 474.428 33.5804C473.948 32.7404 473.708 31.7938 473.708 30.7404C473.708 29.6871 473.948 28.7471 474.428 27.9204C474.921 27.0938 475.601 26.4471 476.468 25.9804C477.334 25.5138 478.308 25.2804 479.388 25.2804C480.481 25.2804 481.461 25.5138 482.328 25.9804C483.194 26.4471 483.868 27.0938 484.348 27.9204C484.841 28.7471 485.088 29.6871 485.088 30.7404C485.088 31.7938 484.841 32.7404 484.348 33.5804C483.868 34.4071 483.194 35.0538 482.328 35.5204C481.461 35.9871 480.481 36.2204 479.388 36.2204ZM479.388 34.0804C480.308 34.0804 481.068 33.7738 481.668 33.1604C482.268 32.5471 482.568 31.7404 482.568 30.7404C482.568 29.7404 482.268 28.9338 481.668 28.3204C481.068 27.7071 480.308 27.4004 479.388 27.4004C478.468 27.4004 477.708 27.7071 477.108 28.3204C476.521 28.9338 476.228 29.7404 476.228 30.7404C476.228 31.7404 476.521 32.5471 477.108 33.1604C477.708 33.7738 478.468 34.0804 479.388 34.0804ZM489.858 26.9604C490.578 25.8404 491.845 25.2804 493.658 25.2804V27.6604C493.445 27.6204 493.252 27.6004 493.078 27.6004C492.105 27.6004 491.345 27.8871 490.798 28.4604C490.252 29.0204 489.978 29.8338 489.978 30.9004V36.0804H487.478V25.4004H489.858V26.9604ZM505.722 30.8004C505.722 30.9738 505.708 31.2204 505.682 31.5404H497.302C497.448 32.3271 497.828 32.9538 498.442 33.4204C499.068 33.8738 499.842 34.1004 500.762 34.1004C501.935 34.1004 502.902 33.7138 503.662 32.9404L505.002 34.4804C504.522 35.0538 503.915 35.4871 503.182 35.7804C502.448 36.0738 501.622 36.2204 500.702 36.2204C499.528 36.2204 498.495 35.9871 497.602 35.5204C496.708 35.0538 496.015 34.4071 495.522 33.5804C495.042 32.7404 494.802 31.7938 494.802 30.7404C494.802 29.7004 495.035 28.7671 495.502 27.9404C495.982 27.1004 496.642 26.4471 497.482 25.9804C498.322 25.5138 499.268 25.2804 500.322 25.2804C501.362 25.2804 502.288 25.5138 503.102 25.9804C503.928 26.4338 504.568 27.0804 505.022 27.9204C505.488 28.7471 505.722 29.7071 505.722 30.8004ZM500.322 27.2804C499.522 27.2804 498.842 27.5204 498.282 28.0004C497.735 28.4671 497.402 29.0938 497.282 29.8804H503.342C503.235 29.1071 502.908 28.4804 502.362 28.0004C501.815 27.5204 501.135 27.2804 500.322 27.2804Z" fill="#CBCBCB"/>
<rect x="23" y="75" width="68" height="315" rx="10" fill="#282E3B"/>
<rect x="132.425" y="75.8525" width="145.686" height="18.0852" rx="5" fill="#282E3B"/>
<rect x="132.425" y="110.013" width="310.965" height="26.123" rx="5" fill="#282E3B"/>
<rect x="132.425" y="182.359" width="310.965" height="207.98" rx="10" fill="#282E3B"/>
<rect x="471" y="110" width="185" height="277" rx="5" fill="#282E3B"/>
<circle cx="669.592" cy="34.9566" r="25.1183" fill="#272D3D"/>
</g>
<defs>
<filter id="filter0_d" x="0" y="0" width="712" height="425.466" filterUnits="userSpaceOnUse" color-interpolation-filters="sRGB">
<feFlood flood-opacity="0" result="BackgroundImageFix"/>
<feColorMatrix in="SourceAlpha" type="matrix" values="0 0 0 0 0 0 0 0 0 0 0 0 0 0 0 0 0 0 127 0" result="hardAlpha"/>
<feOffset dy="4"/>
<feGaussianBlur stdDeviation="2"/>
<feComposite in2="hardAlpha" operator="out"/>
<feColorMatrix type="matrix" values="0 0 0 0 0 0 0 0 0 0 0 0 0 0 0 0 0 0 0.25 0"/>
<feBlend mode="normal" in2="BackgroundImageFix" result="effect1_dropShadow"/>
<feBlend mode="normal" in="SourceGraphic" in2="effect1_dropShadow" result="shape"/>
</filter>
</defs>
</svg>
