<svg width="41" height="41" viewBox="0 0 41 41" fill="none" xmlns="http://www.w3.org/2000/svg">
<path d="M3.72712 4.36908C3.42151 4.366 3.12717 4.48438 2.90879 4.6982C2.69041 4.91202 2.56584 5.20378 2.56246 5.50939C2.56113 5.57593 2.56628 5.64244 2.57784 5.70799L7.45684 35.3215C7.51767 35.6839 7.70423 36.0133 7.98376 36.2518C8.26329 36.4903 8.61792 36.6228 8.98537 36.6258H32.3925C32.6685 36.6295 32.9367 36.534 33.1483 36.3567C33.3599 36.1795 33.5009 35.9322 33.5457 35.6598L38.4208 5.7067C38.4701 5.4061 38.3985 5.09818 38.2216 4.8502C38.0447 4.60222 37.7768 4.43432 37.4765 4.38317C37.4143 4.37297 37.3513 4.36782 37.2882 4.3678L3.72712 4.36908ZM24.272 25.7775H16.801L14.7779 15.2149H26.0824L24.272 25.7775Z" fill="#2684FF"/>
<path d="M36.8692 15.2136H26.0824L24.272 25.7762H16.801L7.97961 36.2594C8.25819 36.5036 8.61498 36.64 8.9854 36.6438H32.399C32.675 36.6475 32.9431 36.552 33.1547 36.3747C33.3663 36.1974 33.5073 35.9501 33.5521 35.6777L36.8692 15.2136Z" fill="url(#paint0_linear)"/>
<defs>
<linearGradient id="paint0_linear" x1="38.8489" y1="17.7741" x2="21.0257" y2="31.6877" gradientUnits="userSpaceOnUse">
<stop offset="0.18" stop-color="#0052CC"/>
<stop offset="1" stop-color="#2684FF"/>
</linearGradient>
</defs>
</svg>
