<svg width="40" height="37" viewBox="0 0 40 37" fill="none" xmlns="http://www.w3.org/2000/svg">
<g clip-path="url(#clip0)">
<path d="M20.0118 37.0118L27.3718 14.2834H12.6516L20.0116 37.0118H20.0118Z" fill="#E24329"/>
<path d="M20.0118 37.0116L12.6516 14.2832H2.33691L20.0118 37.0116Z" fill="#FC6D26"/>
<path d="M2.33691 14.2832L0.10035 21.1903C0.00090576 21.4974 0.000892041 21.8281 0.100311 22.1352C0.19973 22.4423 0.393478 22.7099 0.653788 22.8997L20.0118 37.0117L2.33676 14.2834L2.33691 14.2832Z" fill="#FCA326"/>
<path d="M2.33691 14.2834H12.6516L8.21895 0.594167C7.99082 -0.110244 6.99769 -0.110087 6.76973 0.594167L2.33691 14.2834Z" fill="#E24329"/>
<path d="M20.0118 37.0116L27.3718 14.2832H37.6866L20.0116 37.0116H20.0118Z" fill="#FC6D26"/>
<path d="M37.6866 14.2832L39.9231 21.1903C40.0225 21.4974 40.0225 21.8281 39.9231 22.1352C39.8236 22.4423 39.6299 22.7099 39.3695 22.8997L20.0117 37.0117L37.6866 14.2834V14.2832Z" fill="#FCA326"/>
<path d="M37.6865 14.2834H27.3717L31.8045 0.594167C32.0326 -0.110244 33.0258 -0.110087 33.2537 0.594167L37.6865 14.2834Z" fill="#E24329"/>
</g>
<defs>
<clipPath id="clip0">
<rect width="40" height="37" fill="white"/>
</clipPath>
</defs>
</svg>
