<svg width="898" height="612" viewBox="0 0 898 612" fill="none" xmlns="http://www.w3.org/2000/svg">
<g filter="url(#filter0_d)">
<rect x="100" y="93" width="704" height="417.466" rx="26" fill="#242832"/>
<path d="M100 119C100 104.641 111.641 93 126 93H778C792.359 93 804 104.641 804 119V147.555H100V119Z" fill="#23272A"/>
<path d="M148.349 126.218C145.201 124.309 141.626 124.176 138.443 126.566C136.902 127.722 135.764 129.469 134.143 130.485C132.552 131.482 130.441 130.892 128.915 130.048C127.048 129.017 125.314 126.618 122.964 127.015C121.906 127.194 121.038 127.913 120.546 128.848C120.55 128.367 120.579 127.887 120.63 127.41C120.818 125.672 121.315 123.962 122.121 122.374C124.479 118.411 128.84 119.642 131.975 122.853C136.848 127.845 147.062 121.678 139.828 114.048L144.502 118.835C146.284 120.66 147.486 122.853 148.109 125.176C148.168 125.395 148.222 125.615 148.27 125.836C148.298 125.963 148.325 126.09 148.349 126.218Z" fill="#5D6BFF" fill-opacity="0.8"/>
<path d="M148.445 131.217C148.87 127.145 142.382 125.328 139.037 131.99C135.692 138.653 128.444 141.381 123.11 137.288C123.11 137.288 123.11 137.288 123.11 137.288C122.96 137.071 122.817 136.851 122.681 136.628C121.229 134.259 120.518 131.55 120.546 128.847C121.038 127.913 121.906 127.194 122.964 127.015C125.314 126.618 127.048 129.016 128.915 130.048C130.441 130.891 132.552 131.482 134.143 130.484C135.764 129.469 136.902 127.722 138.443 126.566C141.626 124.176 145.201 124.309 148.349 126.218C148.504 127.029 148.591 127.852 148.609 128.676C148.628 129.525 148.573 130.376 148.445 131.217Z" fill="#5D6BFF" fill-opacity="0.9"/>
<path d="M131.975 122.853C128.84 119.642 124.479 118.411 122.121 122.374C122.626 121.376 123.255 120.426 124.006 119.547C124.212 119.304 124.429 119.067 124.655 118.835L133.654 109.619C134.165 109.095 134.993 109.096 135.504 109.619L139.28 113.487L139.828 114.048C147.062 121.678 136.848 127.844 131.975 122.853Z" fill="#5D6BFF" fill-opacity="0.7"/>
<path d="M148.445 131.217C148.445 131.218 148.445 131.218 148.445 131.218C148.005 134.127 146.69 136.923 144.502 139.164C139.022 144.778 130.135 144.778 124.655 139.164C124.079 138.575 123.565 137.947 123.11 137.289C128.444 141.382 135.692 138.653 139.037 131.991C142.382 125.328 148.87 127.145 148.445 131.217Z" fill="#5D6BFF"/>
<path d="M126.958 124.057C126.017 123.733 125.434 122.924 125.655 122.25C125.876 121.576 126.817 121.291 127.758 121.614C128.699 121.938 129.282 122.747 129.061 123.421C128.84 124.095 127.898 124.38 126.958 124.057Z" fill="#8690F7"/>
<path d="M124.147 133.475C122.744 132.992 121.874 131.786 122.204 130.78C122.533 129.774 123.938 129.35 125.341 129.832C126.743 130.315 127.613 131.521 127.284 132.527C126.954 133.533 125.55 133.957 124.147 133.475Z" fill="#7884FA"/>
<path d="M144.176 134.805C142.895 135.563 141.436 135.432 140.918 134.513C140.4 133.595 141.019 132.235 142.301 131.478C143.582 130.72 145.041 130.85 145.559 131.769C146.077 132.688 145.458 134.047 144.176 134.805Z" fill="#6B78FC"/>
<path d="M148.349 126.218C145.201 124.309 141.626 124.176 138.443 126.566C136.902 127.722 135.764 129.469 134.143 130.485C132.552 131.482 130.441 130.892 128.915 130.048C127.048 129.017 125.314 126.618 122.964 127.015C121.906 127.194 121.038 127.913 120.546 128.848C120.55 128.367 120.579 127.887 120.63 127.41C120.818 125.672 121.315 123.962 122.121 122.374C124.479 118.411 128.84 119.642 131.975 122.853C136.848 127.845 147.062 121.678 139.828 114.048L144.502 118.835C146.284 120.66 147.486 122.853 148.109 125.176C148.168 125.395 148.222 125.615 148.27 125.836C148.298 125.963 148.325 126.09 148.349 126.218Z" fill="#5F6DFF" fill-opacity="0.8"/>
<path d="M148.445 131.217C148.87 127.145 142.382 125.328 139.037 131.99C135.692 138.653 128.444 141.381 123.11 137.288C123.11 137.288 123.11 137.288 123.11 137.288C122.96 137.071 122.817 136.851 122.681 136.628C121.229 134.259 120.518 131.55 120.546 128.847C121.038 127.913 121.906 127.194 122.964 127.015C125.314 126.618 127.048 129.016 128.915 130.048C130.441 130.891 132.552 131.482 134.143 130.484C135.764 129.469 136.902 127.722 138.443 126.566C141.626 124.176 145.201 124.309 148.349 126.218C148.504 127.029 148.591 127.852 148.609 128.676C148.628 129.525 148.573 130.376 148.445 131.217Z" fill="#5665FF" fill-opacity="0.9"/>
<path d="M131.975 122.853C128.84 119.642 124.479 118.411 122.121 122.374C122.626 121.376 123.255 120.426 124.006 119.547C124.212 119.304 124.429 119.067 124.655 118.835L133.654 109.619C134.165 109.095 134.993 109.096 135.504 109.619L139.28 113.487L139.828 114.048C147.062 121.678 136.848 127.844 131.975 122.853Z" fill="#5D6BFF" fill-opacity="0.7"/>
<path d="M148.445 131.217C148.445 131.218 148.445 131.218 148.445 131.218C148.005 134.127 146.69 136.923 144.502 139.164C139.022 144.778 130.135 144.778 124.655 139.164C124.079 138.575 123.565 137.947 123.11 137.289C128.444 141.382 135.692 138.653 139.037 131.991C142.382 125.328 148.87 127.145 148.445 131.217Z" fill="#5160FF"/>
<path d="M126.958 124.057C126.017 123.733 125.434 122.924 125.655 122.25C125.876 121.576 126.817 121.291 127.758 121.614C128.699 121.938 129.282 122.747 129.061 123.421C128.84 124.095 127.898 124.38 126.958 124.057Z" fill="#8690F7"/>
<path d="M124.147 133.475C122.744 132.992 121.874 131.786 122.204 130.78C122.533 129.774 123.938 129.35 125.341 129.832C126.743 130.315 127.613 131.521 127.284 132.527C126.954 133.533 125.55 133.957 124.147 133.475Z" fill="#7884FA"/>
<path d="M144.176 134.805C142.895 135.563 141.436 135.432 140.918 134.513C140.4 133.595 141.019 132.235 142.301 131.478C143.582 130.72 145.041 130.85 145.559 131.769C146.077 132.688 145.458 134.047 144.176 134.805Z" fill="#6B78FC"/>
<path d="M345.226 116.481C346.318 116.481 347.266 116.661 348.07 117.021C348.886 117.381 349.51 117.897 349.942 118.569C350.374 119.241 350.59 120.039 350.59 120.963C350.59 121.875 350.374 122.673 349.942 123.357C349.51 124.029 348.886 124.545 348.07 124.905C347.266 125.265 346.318 125.445 345.226 125.445H342.382V129.081H340.042V116.481H345.226ZM345.118 123.465C346.138 123.465 346.912 123.249 347.44 122.817C347.968 122.385 348.232 121.767 348.232 120.963C348.232 120.159 347.968 119.541 347.44 119.109C346.912 118.677 346.138 118.461 345.118 118.461H342.382V123.465H345.118ZM354.765 120.873C355.413 119.865 356.553 119.361 358.185 119.361V121.503C357.993 121.467 357.819 121.449 357.663 121.449C356.787 121.449 356.103 121.707 355.611 122.223C355.119 122.727 354.873 123.459 354.873 124.419V129.081H352.623V119.469H354.765V120.873ZM364.326 129.207C363.354 129.207 362.478 128.997 361.698 128.577C360.918 128.157 360.306 127.575 359.862 126.831C359.43 126.075 359.214 125.223 359.214 124.275C359.214 123.327 359.43 122.481 359.862 121.737C360.306 120.993 360.918 120.411 361.698 119.991C362.478 119.571 363.354 119.361 364.326 119.361C365.31 119.361 366.192 119.571 366.972 119.991C367.752 120.411 368.358 120.993 368.79 121.737C369.234 122.481 369.456 123.327 369.456 124.275C369.456 125.223 369.234 126.075 368.79 126.831C368.358 127.575 367.752 128.157 366.972 128.577C366.192 128.997 365.31 129.207 364.326 129.207ZM364.326 127.281C365.154 127.281 365.838 127.005 366.378 126.453C366.918 125.901 367.188 125.175 367.188 124.275C367.188 123.375 366.918 122.649 366.378 122.097C365.838 121.545 365.154 121.269 364.326 121.269C363.498 121.269 362.814 121.545 362.274 122.097C361.746 122.649 361.482 123.375 361.482 124.275C361.482 125.175 361.746 125.901 362.274 126.453C362.814 127.005 363.498 127.281 364.326 127.281ZM370.617 132.699C369.669 132.699 368.949 132.513 368.457 132.141L369.105 130.467C369.441 130.719 369.879 130.845 370.419 130.845C370.839 130.845 371.157 130.713 371.373 130.449C371.601 130.197 371.715 129.819 371.715 129.315V119.469H373.965V129.261C373.965 130.329 373.671 131.169 373.083 131.781C372.495 132.393 371.673 132.699 370.617 132.699ZM372.831 117.885C372.423 117.885 372.081 117.759 371.805 117.507C371.529 117.243 371.391 116.919 371.391 116.535C371.391 116.151 371.529 115.833 371.805 115.581C372.081 115.317 372.423 115.185 372.831 115.185C373.239 115.185 373.581 115.311 373.857 115.563C374.133 115.803 374.271 116.109 374.271 116.481C374.271 116.877 374.133 117.213 373.857 117.489C373.593 117.753 373.251 117.885 372.831 117.885ZM385.952 124.329C385.952 124.485 385.94 124.707 385.916 124.995H378.374C378.506 125.703 378.848 126.267 379.4 126.687C379.964 127.095 380.66 127.299 381.488 127.299C382.544 127.299 383.414 126.951 384.098 126.255L385.304 127.641C384.872 128.157 384.326 128.547 383.666 128.811C383.006 129.075 382.262 129.207 381.434 129.207C380.378 129.207 379.448 128.997 378.644 128.577C377.84 128.157 377.216 127.575 376.772 126.831C376.34 126.075 376.124 125.223 376.124 124.275C376.124 123.339 376.334 122.499 376.754 121.755C377.186 120.999 377.78 120.411 378.536 119.991C379.292 119.571 380.144 119.361 381.092 119.361C382.028 119.361 382.862 119.571 383.594 119.991C384.338 120.399 384.914 120.981 385.322 121.737C385.742 122.481 385.952 123.345 385.952 124.329ZM381.092 121.161C380.372 121.161 379.76 121.377 379.256 121.809C378.764 122.229 378.464 122.793 378.356 123.501H383.81C383.714 122.805 383.42 122.241 382.928 121.809C382.436 121.377 381.824 121.161 381.092 121.161ZM392.523 129.207C391.527 129.207 390.633 128.997 389.841 128.577C389.049 128.157 388.431 127.575 387.987 126.831C387.543 126.075 387.321 125.223 387.321 124.275C387.321 123.327 387.543 122.481 387.987 121.737C388.431 120.993 389.043 120.411 389.823 119.991C390.615 119.571 391.515 119.361 392.523 119.361C393.471 119.361 394.299 119.553 395.007 119.937C395.727 120.321 396.267 120.873 396.627 121.593L394.899 122.601C394.623 122.157 394.275 121.827 393.855 121.611C393.447 121.383 392.997 121.269 392.505 121.269C391.665 121.269 390.969 121.545 390.417 122.097C389.865 122.637 389.589 123.363 389.589 124.275C389.589 125.187 389.859 125.919 390.399 126.471C390.951 127.011 391.653 127.281 392.505 127.281C392.997 127.281 393.447 127.173 393.855 126.957C394.275 126.729 394.623 126.393 394.899 125.949L396.627 126.957C396.255 127.677 395.709 128.235 394.989 128.631C394.281 129.015 393.459 129.207 392.523 129.207ZM404.473 128.559C404.209 128.775 403.885 128.937 403.501 129.045C403.129 129.153 402.733 129.207 402.313 129.207C401.257 129.207 400.441 128.931 399.865 128.379C399.289 127.827 399.001 127.023 399.001 125.967V121.341H397.417V119.541H399.001V117.345H401.251V119.541H403.825V121.341H401.251V125.913C401.251 126.381 401.365 126.741 401.593 126.993C401.821 127.233 402.151 127.353 402.583 127.353C403.087 127.353 403.507 127.221 403.843 126.957L404.473 128.559ZM409.294 129.207C408.514 129.207 407.752 129.105 407.008 128.901C406.264 128.697 405.67 128.439 405.226 128.127L406.09 126.417C406.522 126.705 407.038 126.939 407.638 127.119C408.25 127.287 408.85 127.371 409.438 127.371C410.782 127.371 411.454 127.017 411.454 126.309C411.454 125.973 411.28 125.739 410.932 125.607C410.596 125.475 410.05 125.349 409.294 125.229C408.502 125.109 407.854 124.971 407.35 124.815C406.858 124.659 406.426 124.389 406.054 124.005C405.694 123.609 405.514 123.063 405.514 122.367C405.514 121.455 405.892 120.729 406.648 120.189C407.416 119.637 408.448 119.361 409.744 119.361C410.404 119.361 411.064 119.439 411.724 119.595C412.384 119.739 412.924 119.937 413.344 120.189L412.48 121.899C411.664 121.419 410.746 121.179 409.726 121.179C409.066 121.179 408.562 121.281 408.214 121.485C407.878 121.677 407.71 121.935 407.71 122.259C407.71 122.619 407.89 122.877 408.25 123.033C408.622 123.177 409.192 123.315 409.96 123.447C410.728 123.567 411.358 123.705 411.85 123.861C412.342 124.017 412.762 124.281 413.11 124.653C413.47 125.025 413.65 125.553 413.65 126.237C413.65 127.137 413.26 127.857 412.48 128.397C411.7 128.937 410.638 129.207 409.294 129.207Z" fill="#CBCBCB"/>
<path d="M443.436 116.185H448.638C449.908 116.185 451.035 116.435 452.021 116.933C453.007 117.421 453.772 118.118 454.316 119.024C454.86 119.92 455.132 120.957 455.132 122.135C455.132 123.314 454.86 124.357 454.316 125.263C453.772 126.159 453.007 126.856 452.021 127.354C451.035 127.842 449.908 128.085 448.638 128.085H443.436V116.185ZM448.536 126.215C449.409 126.215 450.174 126.051 450.831 125.722C451.5 125.382 452.01 124.906 452.361 124.294C452.724 123.671 452.905 122.951 452.905 122.135C452.905 121.319 452.724 120.605 452.361 119.993C452.01 119.37 451.5 118.894 450.831 118.565C450.174 118.225 449.409 118.055 448.536 118.055H445.646V126.215H448.536ZM457.277 119.007H459.402V128.085H457.277V119.007ZM458.348 117.511C457.963 117.511 457.64 117.392 457.379 117.154C457.119 116.905 456.988 116.599 456.988 116.236C456.988 115.874 457.119 115.573 457.379 115.335C457.64 115.086 457.963 114.961 458.348 114.961C458.734 114.961 459.057 115.08 459.317 115.318C459.578 115.545 459.708 115.834 459.708 116.185C459.708 116.559 459.578 116.877 459.317 117.137C459.068 117.387 458.745 117.511 458.348 117.511ZM464.996 128.204C464.26 128.204 463.54 128.108 462.837 127.915C462.135 127.723 461.574 127.479 461.154 127.184L461.97 125.569C462.378 125.841 462.866 126.062 463.432 126.232C464.01 126.391 464.577 126.47 465.132 126.47C466.402 126.47 467.036 126.136 467.036 125.467C467.036 125.15 466.872 124.929 466.543 124.804C466.226 124.68 465.71 124.561 464.996 124.447C464.248 124.334 463.636 124.204 463.16 124.056C462.696 123.909 462.288 123.654 461.936 123.291C461.596 122.917 461.426 122.402 461.426 121.744C461.426 120.883 461.783 120.197 462.497 119.687C463.223 119.166 464.197 118.905 465.421 118.905C466.045 118.905 466.668 118.979 467.291 119.126C467.915 119.262 468.425 119.449 468.821 119.687L468.005 121.302C467.235 120.849 466.368 120.622 465.404 120.622C464.781 120.622 464.305 120.719 463.976 120.911C463.659 121.093 463.5 121.336 463.5 121.642C463.5 121.982 463.67 122.226 464.01 122.373C464.362 122.509 464.9 122.64 465.625 122.764C466.351 122.878 466.946 123.008 467.41 123.155C467.875 123.303 468.272 123.552 468.6 123.903C468.94 124.255 469.11 124.753 469.11 125.399C469.11 126.249 468.742 126.929 468.005 127.439C467.269 127.949 466.266 128.204 464.996 128.204ZM475.105 128.204C474.165 128.204 473.32 128.006 472.572 127.609C471.824 127.213 471.241 126.663 470.821 125.96C470.402 125.246 470.192 124.442 470.192 123.546C470.192 122.651 470.402 121.852 470.821 121.149C471.241 120.447 471.819 119.897 472.555 119.5C473.303 119.104 474.153 118.905 475.105 118.905C476.001 118.905 476.783 119.087 477.451 119.449C478.131 119.812 478.641 120.333 478.981 121.013L477.349 121.965C477.089 121.546 476.76 121.234 476.363 121.03C475.978 120.815 475.553 120.707 475.088 120.707C474.295 120.707 473.638 120.968 473.116 121.489C472.595 121.999 472.334 122.685 472.334 123.546C472.334 124.408 472.589 125.099 473.099 125.62C473.621 126.13 474.284 126.385 475.088 126.385C475.553 126.385 475.978 126.283 476.363 126.079C476.76 125.864 477.089 125.547 477.349 125.127L478.981 126.079C478.63 126.759 478.114 127.286 477.434 127.66C476.766 128.023 475.989 128.204 475.105 128.204ZM484.765 128.204C483.847 128.204 483.02 128.006 482.283 127.609C481.547 127.213 480.969 126.663 480.549 125.96C480.141 125.246 479.937 124.442 479.937 123.546C479.937 122.651 480.141 121.852 480.549 121.149C480.969 120.447 481.547 119.897 482.283 119.5C483.02 119.104 483.847 118.905 484.765 118.905C485.695 118.905 486.528 119.104 487.264 119.5C488.001 119.897 488.573 120.447 488.981 121.149C489.401 121.852 489.61 122.651 489.61 123.546C489.61 124.442 489.401 125.246 488.981 125.96C488.573 126.663 488.001 127.213 487.264 127.609C486.528 128.006 485.695 128.204 484.765 128.204ZM484.765 126.385C485.547 126.385 486.193 126.125 486.703 125.603C487.213 125.082 487.468 124.396 487.468 123.546C487.468 122.696 487.213 122.011 486.703 121.489C486.193 120.968 485.547 120.707 484.765 120.707C483.983 120.707 483.337 120.968 482.827 121.489C482.329 122.011 482.079 122.696 482.079 123.546C482.079 124.396 482.329 125.082 482.827 125.603C483.337 126.125 483.983 126.385 484.765 126.385ZM499.893 119.007L496 128.085H493.807L489.914 119.007H492.124L494.946 125.739L497.853 119.007H499.893ZM509.507 123.597C509.507 123.745 509.495 123.954 509.473 124.226H502.35C502.474 124.895 502.797 125.428 503.319 125.824C503.851 126.21 504.509 126.402 505.291 126.402C506.288 126.402 507.11 126.074 507.756 125.416L508.895 126.725C508.487 127.213 507.971 127.581 507.348 127.83C506.724 128.08 506.022 128.204 505.24 128.204C504.242 128.204 503.364 128.006 502.605 127.609C501.845 127.213 501.256 126.663 500.837 125.96C500.429 125.246 500.225 124.442 500.225 123.546C500.225 122.662 500.423 121.869 500.82 121.166C501.228 120.452 501.789 119.897 502.503 119.5C503.217 119.104 504.021 118.905 504.917 118.905C505.801 118.905 506.588 119.104 507.28 119.5C507.982 119.886 508.526 120.435 508.912 121.149C509.308 121.852 509.507 122.668 509.507 123.597ZM504.917 120.605C504.237 120.605 503.659 120.809 503.183 121.217C502.718 121.614 502.435 122.147 502.333 122.815H507.484C507.393 122.158 507.115 121.625 506.651 121.217C506.186 120.809 505.608 120.605 504.917 120.605ZM513.571 120.333C514.183 119.381 515.259 118.905 516.801 118.905V120.928C516.619 120.894 516.455 120.877 516.308 120.877C515.48 120.877 514.834 121.121 514.37 121.608C513.905 122.084 513.673 122.776 513.673 123.682V128.085H511.548V119.007H513.571V120.333Z" fill="#638FFF"/>
<path d="M564.586 129.081L564.566 119.801L559.966 127.481H558.806L554.206 119.921V129.081H551.726V115.081H553.866L559.426 124.361L564.886 115.081H567.026L567.046 129.081H564.586ZM575.388 129.221C574.308 129.221 573.334 128.987 572.468 128.521C571.601 128.054 570.921 127.407 570.428 126.581C569.948 125.741 569.708 124.794 569.708 123.741C569.708 122.687 569.948 121.747 570.428 120.921C570.921 120.094 571.601 119.447 572.468 118.981C573.334 118.514 574.308 118.281 575.388 118.281C576.481 118.281 577.461 118.514 578.328 118.981C579.194 119.447 579.868 120.094 580.348 120.921C580.841 121.747 581.088 122.687 581.088 123.741C581.088 124.794 580.841 125.741 580.348 126.581C579.868 127.407 579.194 128.054 578.328 128.521C577.461 128.987 576.481 129.221 575.388 129.221ZM575.388 127.081C576.308 127.081 577.068 126.774 577.668 126.161C578.268 125.547 578.568 124.741 578.568 123.741C578.568 122.741 578.268 121.934 577.668 121.321C577.068 120.707 576.308 120.401 575.388 120.401C574.468 120.401 573.708 120.707 573.108 121.321C572.521 121.934 572.228 122.741 572.228 123.741C572.228 124.741 572.521 125.547 573.108 126.161C573.708 126.774 574.468 127.081 575.388 127.081ZM585.858 119.961C586.578 118.841 587.845 118.281 589.658 118.281V120.661C589.445 120.621 589.252 120.601 589.078 120.601C588.105 120.601 587.345 120.887 586.798 121.461C586.252 122.021 585.978 122.834 585.978 123.901V129.081H583.478V118.401H585.858V119.961ZM601.722 123.801C601.722 123.974 601.708 124.221 601.682 124.541H593.302C593.448 125.327 593.828 125.954 594.442 126.421C595.068 126.874 595.842 127.101 596.762 127.101C597.935 127.101 598.902 126.714 599.662 125.941L601.002 127.481C600.522 128.054 599.915 128.487 599.182 128.781C598.448 129.074 597.622 129.221 596.702 129.221C595.528 129.221 594.495 128.987 593.602 128.521C592.708 128.054 592.015 127.407 591.522 126.581C591.042 125.741 590.802 124.794 590.802 123.741C590.802 122.701 591.035 121.767 591.502 120.941C591.982 120.101 592.642 119.447 593.482 118.981C594.322 118.514 595.268 118.281 596.322 118.281C597.362 118.281 598.288 118.514 599.102 118.981C599.928 119.434 600.568 120.081 601.022 120.921C601.488 121.747 601.722 122.707 601.722 123.801ZM596.322 120.281C595.522 120.281 594.842 120.521 594.282 121.001C593.735 121.467 593.402 122.094 593.282 122.881H599.342C599.235 122.107 598.908 121.481 598.362 121.001C597.815 120.521 597.135 120.281 596.322 120.281Z" fill="#CBCBCB"/>
<circle cx="768" cy="120" r="18" fill="#272D3D"/>
<rect x="407.141" y="175.234" width="222" height="288" rx="17.5" transform="rotate(4.5 407.141 175.234)" fill="#23272A" stroke="#272D3D" stroke-width="5"/>
<rect x="340.5" y="202.5" width="222" height="288" rx="17.5" fill="#23272A" stroke="#272D3D" stroke-width="5"/>
<circle cx="451.5" cy="274.5" r="46.5" fill="#272D3D"/>
<path d="M420.88 351H414.38L413.14 354H409.82L416.06 340H419.26L425.52 354H422.12L420.88 351ZM419.86 348.54L417.64 343.18L415.42 348.54H419.86ZM433.293 343.08C434.626 343.08 435.699 343.48 436.513 344.28C437.339 345.08 437.753 346.267 437.753 347.84V354H434.633V348.32C434.633 347.467 434.446 346.833 434.073 346.42C433.699 345.993 433.159 345.78 432.453 345.78C431.666 345.78 431.039 346.027 430.573 346.52C430.106 347 429.873 347.72 429.873 348.68V354H426.753V343.24H429.733V344.5C430.146 344.047 430.659 343.7 431.273 343.46C431.886 343.207 432.559 343.08 433.293 343.08ZM451.658 339.16V354H448.678V352.76C447.904 353.693 446.784 354.16 445.318 354.16C444.304 354.16 443.384 353.933 442.558 353.48C441.744 353.027 441.104 352.38 440.638 351.54C440.171 350.7 439.938 349.727 439.938 348.62C439.938 347.513 440.171 346.54 440.638 345.7C441.104 344.86 441.744 344.213 442.558 343.76C443.384 343.307 444.304 343.08 445.318 343.08C446.691 343.08 447.764 343.513 448.538 344.38V339.16H451.658ZM445.858 351.6C446.644 351.6 447.298 351.333 447.818 350.8C448.338 350.253 448.598 349.527 448.598 348.62C448.598 347.713 448.338 346.993 447.818 346.46C447.298 345.913 446.644 345.64 445.858 345.64C445.058 345.64 444.398 345.913 443.878 346.46C443.358 346.993 443.098 347.713 443.098 348.62C443.098 349.527 443.358 350.253 443.878 350.8C444.398 351.333 445.058 351.6 445.858 351.6ZM457.525 344.66C457.899 344.14 458.399 343.747 459.025 343.48C459.665 343.213 460.399 343.08 461.225 343.08V345.96C460.879 345.933 460.645 345.92 460.525 345.92C459.632 345.92 458.932 346.173 458.425 346.68C457.919 347.173 457.665 347.92 457.665 348.92V354H454.545V343.24H457.525V344.66ZM473.523 348.66C473.523 348.7 473.503 348.98 473.463 349.5H465.323C465.47 350.167 465.816 350.693 466.363 351.08C466.91 351.467 467.59 351.66 468.403 351.66C468.963 351.66 469.456 351.58 469.883 351.42C470.323 351.247 470.73 350.98 471.103 350.62L472.763 352.42C471.75 353.58 470.27 354.16 468.323 354.16C467.11 354.16 466.036 353.927 465.103 353.46C464.17 352.98 463.45 352.32 462.943 351.48C462.436 350.64 462.183 349.687 462.183 348.62C462.183 347.567 462.43 346.62 462.923 345.78C463.43 344.927 464.116 344.267 464.983 343.8C465.863 343.32 466.843 343.08 467.923 343.08C468.976 343.08 469.93 343.307 470.783 343.76C471.636 344.213 472.303 344.867 472.783 345.72C473.276 346.56 473.523 347.54 473.523 348.66ZM467.943 345.44C467.236 345.44 466.643 345.64 466.163 346.04C465.683 346.44 465.39 346.987 465.283 347.68H470.583C470.476 347 470.183 346.46 469.703 346.06C469.223 345.647 468.636 345.44 467.943 345.44ZM492.685 343.24L488.785 354H485.785L483.365 347.32L480.865 354H477.865L473.985 343.24H476.925L479.465 350.52L482.105 343.24H484.745L487.305 350.52L489.925 343.24H492.685Z" fill="#59637C"/>
<rect x="358" y="389" width="187" height="9" rx="3" fill="#272D3D"/>
<rect x="358" y="389" width="180" height="9" rx="3" fill="#95E76F"/>
<rect x="358" y="424" width="187" height="9" rx="3" fill="#272D3D"/>
<rect x="358" y="424" width="186" height="9" rx="3" fill="#6F89E7"/>
<path d="M358.94 374H360.24V381H358.94V374ZM365.043 375.6C365.717 375.6 366.257 375.797 366.663 376.19C367.07 376.583 367.273 377.167 367.273 377.94V381H366.023V378.1C366.023 377.633 365.913 377.283 365.693 377.05C365.473 376.81 365.16 376.69 364.753 376.69C364.293 376.69 363.93 376.83 363.663 377.11C363.397 377.383 363.263 377.78 363.263 378.3V381H362.013V375.66H363.203V376.35C363.41 376.103 363.67 375.917 363.983 375.79C364.297 375.663 364.65 375.6 365.043 375.6ZM372.069 380.71C371.922 380.83 371.742 380.92 371.529 380.98C371.322 381.04 371.102 381.07 370.869 381.07C370.282 381.07 369.829 380.917 369.509 380.61C369.189 380.303 369.029 379.857 369.029 379.27V376.7H368.149V375.7H369.029V374.48H370.279V375.7H371.709V376.7H370.279V379.24C370.279 379.5 370.342 379.7 370.469 379.84C370.596 379.973 370.779 380.04 371.019 380.04C371.299 380.04 371.532 379.967 371.719 379.82L372.069 380.71ZM377.942 378.36C377.942 378.447 377.935 378.57 377.922 378.73H373.732C373.805 379.123 373.995 379.437 374.302 379.67C374.615 379.897 375.002 380.01 375.462 380.01C376.048 380.01 376.532 379.817 376.912 379.43L377.582 380.2C377.342 380.487 377.038 380.703 376.672 380.85C376.305 380.997 375.892 381.07 375.432 381.07C374.845 381.07 374.328 380.953 373.882 380.72C373.435 380.487 373.088 380.163 372.842 379.75C372.602 379.33 372.482 378.857 372.482 378.33C372.482 377.81 372.598 377.343 372.832 376.93C373.072 376.51 373.402 376.183 373.822 375.95C374.242 375.717 374.715 375.6 375.242 375.6C375.762 375.6 376.225 375.717 376.632 375.95C377.045 376.177 377.365 376.5 377.592 376.92C377.825 377.333 377.942 377.813 377.942 378.36ZM375.242 376.6C374.842 376.6 374.502 376.72 374.222 376.96C373.948 377.193 373.782 377.507 373.722 377.9H376.752C376.698 377.513 376.535 377.2 376.262 376.96C375.988 376.72 375.648 376.6 375.242 376.6ZM380.332 376.44C380.692 375.88 381.326 375.6 382.232 375.6V376.79C382.126 376.77 382.029 376.76 381.942 376.76C381.456 376.76 381.076 376.903 380.802 377.19C380.529 377.47 380.392 377.877 380.392 378.41V381H379.142V375.66H380.332V376.44ZM388.264 378.36C388.264 378.447 388.257 378.57 388.244 378.73H384.054C384.127 379.123 384.317 379.437 384.624 379.67C384.937 379.897 385.324 380.01 385.784 380.01C386.37 380.01 386.854 379.817 387.234 379.43L387.904 380.2C387.664 380.487 387.36 380.703 386.994 380.85C386.627 380.997 386.214 381.07 385.754 381.07C385.167 381.07 384.65 380.953 384.204 380.72C383.757 380.487 383.41 380.163 383.164 379.75C382.924 379.33 382.804 378.857 382.804 378.33C382.804 377.81 382.92 377.343 383.154 376.93C383.394 376.51 383.724 376.183 384.144 375.95C384.564 375.717 385.037 375.6 385.564 375.6C386.084 375.6 386.547 375.717 386.954 375.95C387.367 376.177 387.687 376.5 387.914 376.92C388.147 377.333 388.264 377.813 388.264 378.36ZM385.564 376.6C385.164 376.6 384.824 376.72 384.544 376.96C384.27 377.193 384.104 377.507 384.044 377.9H387.074C387.02 377.513 386.857 377.2 386.584 376.96C386.31 376.72 385.97 376.6 385.564 376.6ZM391.115 381.07C390.681 381.07 390.258 381.013 389.845 380.9C389.431 380.787 389.101 380.643 388.855 380.47L389.335 379.52C389.575 379.68 389.861 379.81 390.195 379.91C390.535 380.003 390.868 380.05 391.195 380.05C391.941 380.05 392.315 379.853 392.315 379.46C392.315 379.273 392.218 379.143 392.025 379.07C391.838 378.997 391.535 378.927 391.115 378.86C390.675 378.793 390.315 378.717 390.035 378.63C389.761 378.543 389.521 378.393 389.315 378.18C389.115 377.96 389.015 377.657 389.015 377.27C389.015 376.763 389.225 376.36 389.645 376.06C390.071 375.753 390.645 375.6 391.365 375.6C391.731 375.6 392.098 375.643 392.465 375.73C392.831 375.81 393.131 375.92 393.365 376.06L392.885 377.01C392.431 376.743 391.921 376.61 391.355 376.61C390.988 376.61 390.708 376.667 390.515 376.78C390.328 376.887 390.235 377.03 390.235 377.21C390.235 377.41 390.335 377.553 390.535 377.64C390.741 377.72 391.058 377.797 391.485 377.87C391.911 377.937 392.261 378.013 392.535 378.1C392.808 378.187 393.041 378.333 393.235 378.54C393.435 378.747 393.535 379.04 393.535 379.42C393.535 379.92 393.318 380.32 392.885 380.62C392.451 380.92 391.861 381.07 391.115 381.07ZM397.821 380.71C397.674 380.83 397.494 380.92 397.281 380.98C397.074 381.04 396.854 381.07 396.621 381.07C396.034 381.07 395.581 380.917 395.261 380.61C394.941 380.303 394.781 379.857 394.781 379.27V376.7H393.901V375.7H394.781V374.48H396.031V375.7H397.461V376.7H396.031V379.24C396.031 379.5 396.094 379.7 396.221 379.84C396.348 379.973 396.531 380.04 396.771 380.04C397.051 380.04 397.284 379.967 397.471 379.82L397.821 380.71ZM400.499 381.07C400.066 381.07 399.643 381.013 399.229 380.9C398.816 380.787 398.486 380.643 398.239 380.47L398.719 379.52C398.959 379.68 399.246 379.81 399.579 379.91C399.919 380.003 400.253 380.05 400.579 380.05C401.326 380.05 401.699 379.853 401.699 379.46C401.699 379.273 401.603 379.143 401.409 379.07C401.223 378.997 400.919 378.927 400.499 378.86C400.059 378.793 399.699 378.717 399.419 378.63C399.146 378.543 398.906 378.393 398.699 378.18C398.499 377.96 398.399 377.657 398.399 377.27C398.399 376.763 398.609 376.36 399.029 376.06C399.456 375.753 400.029 375.6 400.749 375.6C401.116 375.6 401.483 375.643 401.849 375.73C402.216 375.81 402.516 375.92 402.749 376.06L402.269 377.01C401.816 376.743 401.306 376.61 400.739 376.61C400.373 376.61 400.093 376.667 399.899 376.78C399.713 376.887 399.619 377.03 399.619 377.21C399.619 377.41 399.719 377.553 399.919 377.64C400.126 377.72 400.443 377.797 400.869 377.87C401.296 377.937 401.646 378.013 401.919 378.1C402.193 378.187 402.426 378.333 402.619 378.54C402.819 378.747 402.919 379.04 402.919 379.42C402.919 379.92 402.703 380.32 402.269 380.62C401.836 380.92 401.246 381.07 400.499 381.07Z" fill="#59637C"/>
<path d="M361.82 409C362.427 409 362.953 409.1 363.4 409.3C363.853 409.5 364.2 409.787 364.44 410.16C364.68 410.533 364.8 410.977 364.8 411.49C364.8 411.997 364.68 412.44 364.44 412.82C364.2 413.193 363.853 413.48 363.4 413.68C362.953 413.88 362.427 413.98 361.82 413.98H360.24V416H358.94V409H361.82ZM361.76 412.88C362.327 412.88 362.757 412.76 363.05 412.52C363.343 412.28 363.49 411.937 363.49 411.49C363.49 411.043 363.343 410.7 363.05 410.46C362.757 410.22 362.327 410.1 361.76 410.1H360.24V412.88H361.76ZM367.119 411.44C367.479 410.88 368.113 410.6 369.019 410.6V411.79C368.913 411.77 368.816 411.76 368.729 411.76C368.243 411.76 367.863 411.903 367.589 412.19C367.316 412.47 367.179 412.877 367.179 413.41V416H365.929V410.66H367.119V411.44ZM372.431 416.07C371.891 416.07 371.404 415.953 370.971 415.72C370.538 415.487 370.198 415.163 369.951 414.75C369.711 414.33 369.591 413.857 369.591 413.33C369.591 412.803 369.711 412.333 369.951 411.92C370.198 411.507 370.538 411.183 370.971 410.95C371.404 410.717 371.891 410.6 372.431 410.6C372.978 410.6 373.468 410.717 373.901 410.95C374.334 411.183 374.671 411.507 374.911 411.92C375.158 412.333 375.281 412.803 375.281 413.33C375.281 413.857 375.158 414.33 374.911 414.75C374.671 415.163 374.334 415.487 373.901 415.72C373.468 415.953 372.978 416.07 372.431 416.07ZM372.431 415C372.891 415 373.271 414.847 373.571 414.54C373.871 414.233 374.021 413.83 374.021 413.33C374.021 412.83 373.871 412.427 373.571 412.12C373.271 411.813 372.891 411.66 372.431 411.66C371.971 411.66 371.591 411.813 371.291 412.12C370.998 412.427 370.851 412.83 370.851 413.33C370.851 413.83 370.998 414.233 371.291 414.54C371.591 414.847 371.971 415 372.431 415ZM375.926 418.01C375.4 418.01 375 417.907 374.726 417.7L375.086 416.77C375.273 416.91 375.516 416.98 375.816 416.98C376.05 416.98 376.226 416.907 376.346 416.76C376.473 416.62 376.536 416.41 376.536 416.13V410.66H377.786V416.1C377.786 416.693 377.623 417.16 377.296 417.5C376.97 417.84 376.513 418.01 375.926 418.01ZM377.156 409.78C376.93 409.78 376.74 409.71 376.586 409.57C376.433 409.423 376.356 409.243 376.356 409.03C376.356 408.817 376.433 408.64 376.586 408.5C376.74 408.353 376.93 408.28 377.156 408.28C377.383 408.28 377.573 408.35 377.726 408.49C377.88 408.623 377.956 408.793 377.956 409C377.956 409.22 377.88 409.407 377.726 409.56C377.58 409.707 377.39 409.78 377.156 409.78ZM384.445 413.36C384.445 413.447 384.439 413.57 384.425 413.73H380.235C380.309 414.123 380.499 414.437 380.805 414.67C381.119 414.897 381.505 415.01 381.965 415.01C382.552 415.01 383.035 414.817 383.415 414.43L384.085 415.2C383.845 415.487 383.542 415.703 383.175 415.85C382.809 415.997 382.395 416.07 381.935 416.07C381.349 416.07 380.832 415.953 380.385 415.72C379.939 415.487 379.592 415.163 379.345 414.75C379.105 414.33 378.985 413.857 378.985 413.33C378.985 412.81 379.102 412.343 379.335 411.93C379.575 411.51 379.905 411.183 380.325 410.95C380.745 410.717 381.219 410.6 381.745 410.6C382.265 410.6 382.729 410.717 383.135 410.95C383.549 411.177 383.869 411.5 384.095 411.92C384.329 412.333 384.445 412.813 384.445 413.36ZM381.745 411.6C381.345 411.6 381.005 411.72 380.725 411.96C380.452 412.193 380.285 412.507 380.225 412.9H383.255C383.202 412.513 383.039 412.2 382.765 411.96C382.492 411.72 382.152 411.6 381.745 411.6ZM388.096 416.07C387.543 416.07 387.046 415.953 386.606 415.72C386.166 415.487 385.823 415.163 385.576 414.75C385.33 414.33 385.206 413.857 385.206 413.33C385.206 412.803 385.33 412.333 385.576 411.92C385.823 411.507 386.163 411.183 386.596 410.95C387.036 410.717 387.536 410.6 388.096 410.6C388.623 410.6 389.083 410.707 389.476 410.92C389.876 411.133 390.176 411.44 390.376 411.84L389.416 412.4C389.263 412.153 389.07 411.97 388.836 411.85C388.61 411.723 388.36 411.66 388.086 411.66C387.62 411.66 387.233 411.813 386.926 412.12C386.62 412.42 386.466 412.823 386.466 413.33C386.466 413.837 386.616 414.243 386.916 414.55C387.223 414.85 387.613 415 388.086 415C388.36 415 388.61 414.94 388.836 414.82C389.07 414.693 389.263 414.507 389.416 414.26L390.376 414.82C390.17 415.22 389.866 415.53 389.466 415.75C389.073 415.963 388.616 416.07 388.096 416.07ZM394.735 415.71C394.588 415.83 394.408 415.92 394.195 415.98C393.988 416.04 393.768 416.07 393.535 416.07C392.948 416.07 392.495 415.917 392.175 415.61C391.855 415.303 391.695 414.857 391.695 414.27V411.7H390.815V410.7H391.695V409.48H392.945V410.7H394.375V411.7H392.945V414.24C392.945 414.5 393.008 414.7 393.135 414.84C393.262 414.973 393.445 415.04 393.685 415.04C393.965 415.04 394.198 414.967 394.385 414.82L394.735 415.71ZM400.067 410.1H397.747V409H403.687V410.1H401.367V416H400.067V410.1ZM409.016 413.36C409.016 413.447 409.009 413.57 408.996 413.73H404.806C404.879 414.123 405.069 414.437 405.376 414.67C405.689 414.897 406.076 415.01 406.536 415.01C407.122 415.01 407.606 414.817 407.986 414.43L408.656 415.2C408.416 415.487 408.112 415.703 407.746 415.85C407.379 415.997 406.966 416.07 406.506 416.07C405.919 416.07 405.402 415.953 404.956 415.72C404.509 415.487 404.162 415.163 403.916 414.75C403.676 414.33 403.556 413.857 403.556 413.33C403.556 412.81 403.672 412.343 403.906 411.93C404.146 411.51 404.476 411.183 404.896 410.95C405.316 410.717 405.789 410.6 406.316 410.6C406.836 410.6 407.299 410.717 407.706 410.95C408.119 411.177 408.439 411.5 408.666 411.92C408.899 412.333 409.016 412.813 409.016 413.36ZM406.316 411.6C405.916 411.6 405.576 411.72 405.296 411.96C405.022 412.193 404.856 412.507 404.796 412.9H407.826C407.772 412.513 407.609 412.2 407.336 411.96C407.062 411.72 406.722 411.6 406.316 411.6ZM412.666 416.07C412.113 416.07 411.616 415.953 411.176 415.72C410.736 415.487 410.393 415.163 410.146 414.75C409.9 414.33 409.776 413.857 409.776 413.33C409.776 412.803 409.9 412.333 410.146 411.92C410.393 411.507 410.733 411.183 411.166 410.95C411.606 410.717 412.106 410.6 412.666 410.6C413.193 410.6 413.653 410.707 414.046 410.92C414.446 411.133 414.746 411.44 414.946 411.84L413.986 412.4C413.833 412.153 413.64 411.97 413.406 411.85C413.18 411.723 412.93 411.66 412.656 411.66C412.19 411.66 411.803 411.813 411.496 412.12C411.19 412.42 411.036 412.823 411.036 413.33C411.036 413.837 411.186 414.243 411.486 414.55C411.793 414.85 412.183 415 412.656 415C412.93 415 413.18 414.94 413.406 414.82C413.64 414.693 413.833 414.507 413.986 414.26L414.946 414.82C414.74 415.22 414.436 415.53 414.036 415.75C413.643 415.963 413.186 416.07 412.666 416.07ZM419.008 410.6C419.682 410.6 420.222 410.797 420.628 411.19C421.035 411.583 421.238 412.167 421.238 412.94V416H419.988V413.1C419.988 412.633 419.878 412.283 419.658 412.05C419.438 411.81 419.125 411.69 418.718 411.69C418.258 411.69 417.895 411.83 417.628 412.11C417.362 412.383 417.228 412.78 417.228 413.3V416H415.978V408.58H417.228V411.28C417.435 411.06 417.688 410.893 417.988 410.78C418.295 410.66 418.635 410.6 419.008 410.6ZM427.878 416.1C427.338 416.1 426.814 416.023 426.308 415.87C425.808 415.717 425.411 415.513 425.118 415.26L425.568 414.25C425.854 414.477 426.204 414.663 426.618 414.81C427.038 414.95 427.458 415.02 427.878 415.02C428.398 415.02 428.784 414.937 429.038 414.77C429.298 414.603 429.428 414.383 429.428 414.11C429.428 413.91 429.354 413.747 429.208 413.62C429.068 413.487 428.888 413.383 428.668 413.31C428.448 413.237 428.148 413.153 427.768 413.06C427.234 412.933 426.801 412.807 426.468 412.68C426.141 412.553 425.858 412.357 425.618 412.09C425.384 411.817 425.268 411.45 425.268 410.99C425.268 410.603 425.371 410.253 425.578 409.94C425.791 409.62 426.108 409.367 426.528 409.18C426.954 408.993 427.474 408.9 428.088 408.9C428.514 408.9 428.934 408.953 429.348 409.06C429.761 409.167 430.118 409.32 430.418 409.52L430.008 410.53C429.701 410.35 429.381 410.213 429.048 410.12C428.714 410.027 428.391 409.98 428.078 409.98C427.564 409.98 427.181 410.067 426.928 410.24C426.681 410.413 426.558 410.643 426.558 410.93C426.558 411.13 426.628 411.293 426.768 411.42C426.914 411.547 427.098 411.647 427.318 411.72C427.538 411.793 427.838 411.877 428.218 411.97C428.738 412.09 429.164 412.217 429.498 412.35C429.831 412.477 430.114 412.673 430.348 412.94C430.588 413.207 430.708 413.567 430.708 414.02C430.708 414.407 430.601 414.757 430.388 415.07C430.181 415.383 429.864 415.633 429.438 415.82C429.011 416.007 428.491 416.1 427.878 416.1ZM435.087 415.71C434.94 415.83 434.76 415.92 434.547 415.98C434.34 416.04 434.12 416.07 433.887 416.07C433.3 416.07 432.847 415.917 432.527 415.61C432.207 415.303 432.047 414.857 432.047 414.27V411.7H431.167V410.7H432.047V409.48H433.297V410.7H434.727V411.7H433.297V414.24C433.297 414.5 433.36 414.7 433.487 414.84C433.613 414.973 433.797 415.04 434.037 415.04C434.317 415.04 434.55 414.967 434.737 414.82L435.087 415.71ZM438.155 410.6C438.942 410.6 439.542 410.79 439.955 411.17C440.375 411.543 440.585 412.11 440.585 412.87V416H439.405V415.35C439.252 415.583 439.032 415.763 438.745 415.89C438.465 416.01 438.125 416.07 437.725 416.07C437.325 416.07 436.975 416.003 436.675 415.87C436.375 415.73 436.142 415.54 435.975 415.3C435.815 415.053 435.735 414.777 435.735 414.47C435.735 413.99 435.912 413.607 436.265 413.32C436.625 413.027 437.188 412.88 437.955 412.88H439.335V412.8C439.335 412.427 439.222 412.14 438.995 411.94C438.775 411.74 438.445 411.64 438.005 411.64C437.705 411.64 437.408 411.687 437.115 411.78C436.828 411.873 436.585 412.003 436.385 412.17L435.895 411.26C436.175 411.047 436.512 410.883 436.905 410.77C437.298 410.657 437.715 410.6 438.155 410.6ZM437.985 415.16C438.298 415.16 438.575 415.09 438.815 414.95C439.062 414.803 439.235 414.597 439.335 414.33V413.71H438.045C437.325 413.71 436.965 413.947 436.965 414.42C436.965 414.647 437.055 414.827 437.235 414.96C437.415 415.093 437.665 415.16 437.985 415.16ZM444.688 416.07C444.135 416.07 443.638 415.953 443.198 415.72C442.758 415.487 442.415 415.163 442.168 414.75C441.921 414.33 441.798 413.857 441.798 413.33C441.798 412.803 441.921 412.333 442.168 411.92C442.415 411.507 442.755 411.183 443.188 410.95C443.628 410.717 444.128 410.6 444.688 410.6C445.215 410.6 445.675 410.707 446.068 410.92C446.468 411.133 446.768 411.44 446.968 411.84L446.008 412.4C445.855 412.153 445.661 411.97 445.428 411.85C445.201 411.723 444.951 411.66 444.678 411.66C444.211 411.66 443.825 411.813 443.518 412.12C443.211 412.42 443.058 412.823 443.058 413.33C443.058 413.837 443.208 414.243 443.508 414.55C443.815 414.85 444.205 415 444.678 415C444.951 415 445.201 414.94 445.428 414.82C445.661 414.693 445.855 414.507 446.008 414.26L446.968 414.82C446.761 415.22 446.458 415.53 446.058 415.75C445.665 415.963 445.208 416.07 444.688 416.07ZM450.18 413.71L449.25 414.59V416H448V408.58H449.25V413.06L451.84 410.66H453.34L451.11 412.9L453.55 416H452.03L450.18 413.71Z" fill="#59637C"/>
<path d="M483.8 373.9C484.76 373.9 485.503 374.2 486.03 374.8C486.563 375.4 486.83 376.26 486.83 377.38C486.83 378.167 486.687 378.84 486.4 379.4C486.113 379.953 485.71 380.377 485.19 380.67C484.677 380.957 484.08 381.1 483.4 381.1C483.04 381.1 482.7 381.063 482.38 380.99C482.067 380.91 481.793 380.797 481.56 380.65L482.04 379.67C482.387 379.897 482.83 380.01 483.37 380.01C484.043 380.01 484.57 379.803 484.95 379.39C485.33 378.977 485.52 378.38 485.52 377.6V377.59C485.313 377.83 485.05 378.013 484.73 378.14C484.41 378.26 484.05 378.32 483.65 378.32C483.19 378.32 482.777 378.233 482.41 378.06C482.043 377.88 481.757 377.627 481.55 377.3C481.343 376.973 481.24 376.597 481.24 376.17C481.24 375.717 481.353 375.32 481.58 374.98C481.807 374.633 482.113 374.367 482.5 374.18C482.887 373.993 483.32 373.9 483.8 373.9ZM483.9 377.3C484.32 377.3 484.66 377.187 484.92 376.96C485.187 376.733 485.32 376.447 485.32 376.1C485.32 375.76 485.19 375.48 484.93 375.26C484.677 375.033 484.323 374.92 483.87 374.92C483.463 374.92 483.133 375.03 482.88 375.25C482.627 375.463 482.5 375.75 482.5 376.11C482.5 376.477 482.627 376.767 482.88 376.98C483.133 377.193 483.473 377.3 483.9 377.3ZM490.89 376.68C491.35 376.68 491.763 376.77 492.13 376.95C492.496 377.123 492.783 377.373 492.99 377.7C493.196 378.027 493.3 378.403 493.3 378.83C493.3 379.283 493.186 379.683 492.96 380.03C492.733 380.37 492.426 380.633 492.04 380.82C491.653 381.007 491.22 381.1 490.74 381.1C489.78 381.1 489.033 380.8 488.5 380.2C487.973 379.6 487.71 378.74 487.71 377.62C487.71 376.833 487.853 376.163 488.14 375.61C488.426 375.05 488.826 374.627 489.34 374.34C489.86 374.047 490.46 373.9 491.14 373.9C491.5 373.9 491.836 373.94 492.15 374.02C492.47 374.093 492.746 374.203 492.98 374.35L492.5 375.33C492.153 375.103 491.71 374.99 491.17 374.99C490.496 374.99 489.97 375.197 489.59 375.61C489.21 376.023 489.02 376.62 489.02 377.4V377.41C489.226 377.17 489.49 376.99 489.81 376.87C490.13 376.743 490.49 376.68 490.89 376.68ZM490.67 380.08C491.076 380.08 491.406 379.973 491.66 379.76C491.913 379.54 492.04 379.25 492.04 378.89C492.04 378.523 491.913 378.233 491.66 378.02C491.406 377.807 491.066 377.7 490.64 377.7C490.22 377.7 489.876 377.813 489.61 378.04C489.35 378.267 489.22 378.553 489.22 378.9C489.22 379.24 489.346 379.523 489.6 379.75C489.86 379.97 490.216 380.08 490.67 380.08ZM495.344 377.77C494.844 377.77 494.44 377.593 494.134 377.24C493.827 376.887 493.674 376.423 493.674 375.85C493.674 375.277 493.827 374.813 494.134 374.46C494.44 374.107 494.844 373.93 495.344 373.93C495.844 373.93 496.247 374.107 496.554 374.46C496.867 374.807 497.024 375.27 497.024 375.85C497.024 376.43 496.867 376.897 496.554 377.25C496.247 377.597 495.844 377.77 495.344 377.77ZM499.544 374H500.524L495.744 381H494.764L499.544 374ZM495.344 377.07C495.617 377.07 495.827 376.963 495.974 376.75C496.127 376.537 496.204 376.237 496.204 375.85C496.204 375.463 496.127 375.163 495.974 374.95C495.827 374.737 495.617 374.63 495.344 374.63C495.084 374.63 494.874 374.74 494.714 374.96C494.56 375.173 494.484 375.47 494.484 375.85C494.484 376.23 494.56 376.53 494.714 376.75C494.874 376.963 495.084 377.07 495.344 377.07ZM499.934 381.07C499.434 381.07 499.03 380.893 498.724 380.54C498.417 380.187 498.264 379.723 498.264 379.15C498.264 378.577 498.417 378.113 498.724 377.76C499.03 377.407 499.434 377.23 499.934 377.23C500.434 377.23 500.837 377.407 501.144 377.76C501.457 378.113 501.614 378.577 501.614 379.15C501.614 379.723 501.457 380.187 501.144 380.54C500.837 380.893 500.434 381.07 499.934 381.07ZM499.934 380.37C500.2 380.37 500.41 380.263 500.564 380.05C500.717 379.83 500.794 379.53 500.794 379.15C500.794 378.77 500.717 378.473 500.564 378.26C500.41 378.04 500.2 377.93 499.934 377.93C499.667 377.93 499.457 378.037 499.304 378.25C499.15 378.463 499.074 378.763 499.074 379.15C499.074 379.537 499.15 379.837 499.304 380.05C499.457 380.263 499.667 380.37 499.934 380.37ZM512.081 381L512.071 376.36L509.771 380.2H509.191L506.891 376.42V381H505.651V374H506.721L509.501 378.64L512.231 374H513.301L513.311 381H512.081ZM517.122 375.6C517.908 375.6 518.508 375.79 518.922 376.17C519.342 376.543 519.552 377.11 519.552 377.87V381H518.372V380.35C518.218 380.583 517.998 380.763 517.712 380.89C517.432 381.01 517.092 381.07 516.692 381.07C516.292 381.07 515.942 381.003 515.642 380.87C515.342 380.73 515.108 380.54 514.942 380.3C514.782 380.053 514.702 379.777 514.702 379.47C514.702 378.99 514.878 378.607 515.232 378.32C515.592 378.027 516.155 377.88 516.922 377.88H518.302V377.8C518.302 377.427 518.188 377.14 517.962 376.94C517.742 376.74 517.412 376.64 516.972 376.64C516.672 376.64 516.375 376.687 516.082 376.78C515.795 376.873 515.552 377.003 515.352 377.17L514.862 376.26C515.142 376.047 515.478 375.883 515.872 375.77C516.265 375.657 516.682 375.6 517.122 375.6ZM516.952 380.16C517.265 380.16 517.542 380.09 517.782 379.95C518.028 379.803 518.202 379.597 518.302 379.33V378.71H517.012C516.292 378.71 515.932 378.947 515.932 379.42C515.932 379.647 516.022 379.827 516.202 379.96C516.382 380.093 516.632 380.16 516.952 380.16ZM524.366 380.71C524.219 380.83 524.039 380.92 523.826 380.98C523.619 381.04 523.399 381.07 523.166 381.07C522.579 381.07 522.126 380.917 521.806 380.61C521.486 380.303 521.326 379.857 521.326 379.27V376.7H520.446V375.7H521.326V374.48H522.576V375.7H524.006V376.7H522.576V379.24C522.576 379.5 522.639 379.7 522.766 379.84C522.893 379.973 523.076 380.04 523.316 380.04C523.596 380.04 523.829 379.967 524.016 379.82L524.366 380.71ZM527.668 381.07C527.115 381.07 526.618 380.953 526.178 380.72C525.738 380.487 525.395 380.163 525.148 379.75C524.902 379.33 524.778 378.857 524.778 378.33C524.778 377.803 524.902 377.333 525.148 376.92C525.395 376.507 525.735 376.183 526.168 375.95C526.608 375.717 527.108 375.6 527.668 375.6C528.195 375.6 528.655 375.707 529.048 375.92C529.448 376.133 529.748 376.44 529.948 376.84L528.988 377.4C528.835 377.153 528.642 376.97 528.408 376.85C528.182 376.723 527.932 376.66 527.658 376.66C527.192 376.66 526.805 376.813 526.498 377.12C526.192 377.42 526.038 377.823 526.038 378.33C526.038 378.837 526.188 379.243 526.488 379.55C526.795 379.85 527.185 380 527.658 380C527.932 380 528.182 379.94 528.408 379.82C528.642 379.693 528.835 379.507 528.988 379.26L529.948 379.82C529.742 380.22 529.438 380.53 529.038 380.75C528.645 380.963 528.188 381.07 527.668 381.07ZM534.01 375.6C534.683 375.6 535.223 375.797 535.63 376.19C536.037 376.583 536.24 377.167 536.24 377.94V381H534.99V378.1C534.99 377.633 534.88 377.283 534.66 377.05C534.44 376.81 534.127 376.69 533.72 376.69C533.26 376.69 532.897 376.83 532.63 377.11C532.363 377.383 532.23 377.78 532.23 378.3V381H530.98V373.58H532.23V376.28C532.437 376.06 532.69 375.893 532.99 375.78C533.297 375.66 533.637 375.6 534.01 375.6Z" fill="#59637C"/>
<path d="M493.86 409V416H492.56V410.09H491.08V409H493.86ZM498.169 416.1C497.609 416.1 497.109 415.96 496.669 415.68C496.229 415.393 495.882 414.98 495.629 414.44C495.375 413.893 495.249 413.247 495.249 412.5C495.249 411.753 495.375 411.11 495.629 410.57C495.882 410.023 496.229 409.61 496.669 409.33C497.109 409.043 497.609 408.9 498.169 408.9C498.729 408.9 499.229 409.043 499.669 409.33C500.115 409.61 500.465 410.023 500.719 410.57C500.972 411.11 501.099 411.753 501.099 412.5C501.099 413.247 500.972 413.893 500.719 414.44C500.465 414.98 500.115 415.393 499.669 415.68C499.229 415.96 498.729 416.1 498.169 416.1ZM498.169 414.97C498.669 414.97 499.062 414.763 499.349 414.35C499.642 413.937 499.789 413.32 499.789 412.5C499.789 411.68 499.642 411.063 499.349 410.65C499.062 410.237 498.669 410.03 498.169 410.03C497.675 410.03 497.282 410.237 496.989 410.65C496.702 411.063 496.559 411.68 496.559 412.5C496.559 413.32 496.702 413.937 496.989 414.35C497.282 414.763 497.675 414.97 498.169 414.97ZM504.897 416.1C504.337 416.1 503.837 415.96 503.397 415.68C502.957 415.393 502.61 414.98 502.357 414.44C502.104 413.893 501.977 413.247 501.977 412.5C501.977 411.753 502.104 411.11 502.357 410.57C502.61 410.023 502.957 409.61 503.397 409.33C503.837 409.043 504.337 408.9 504.897 408.9C505.457 408.9 505.957 409.043 506.397 409.33C506.844 409.61 507.194 410.023 507.447 410.57C507.7 411.11 507.827 411.753 507.827 412.5C507.827 413.247 507.7 413.893 507.447 414.44C507.194 414.98 506.844 415.393 506.397 415.68C505.957 415.96 505.457 416.1 504.897 416.1ZM504.897 414.97C505.397 414.97 505.79 414.763 506.077 414.35C506.37 413.937 506.517 413.32 506.517 412.5C506.517 411.68 506.37 411.063 506.077 410.65C505.79 410.237 505.397 410.03 504.897 410.03C504.404 410.03 504.01 410.237 503.717 410.65C503.43 411.063 503.287 411.68 503.287 412.5C503.287 413.32 503.43 413.937 503.717 414.35C504.01 414.763 504.404 414.97 504.897 414.97ZM510.266 412.77C509.766 412.77 509.362 412.593 509.056 412.24C508.749 411.887 508.596 411.423 508.596 410.85C508.596 410.277 508.749 409.813 509.056 409.46C509.362 409.107 509.766 408.93 510.266 408.93C510.766 408.93 511.169 409.107 511.476 409.46C511.789 409.807 511.946 410.27 511.946 410.85C511.946 411.43 511.789 411.897 511.476 412.25C511.169 412.597 510.766 412.77 510.266 412.77ZM514.466 409H515.446L510.666 416H509.686L514.466 409ZM510.266 412.07C510.539 412.07 510.749 411.963 510.896 411.75C511.049 411.537 511.126 411.237 511.126 410.85C511.126 410.463 511.049 410.163 510.896 409.95C510.749 409.737 510.539 409.63 510.266 409.63C510.006 409.63 509.796 409.74 509.636 409.96C509.482 410.173 509.406 410.47 509.406 410.85C509.406 411.23 509.482 411.53 509.636 411.75C509.796 411.963 510.006 412.07 510.266 412.07ZM514.856 416.07C514.356 416.07 513.952 415.893 513.646 415.54C513.339 415.187 513.186 414.723 513.186 414.15C513.186 413.577 513.339 413.113 513.646 412.76C513.952 412.407 514.356 412.23 514.856 412.23C515.356 412.23 515.759 412.407 516.066 412.76C516.379 413.113 516.536 413.577 516.536 414.15C516.536 414.723 516.379 415.187 516.066 415.54C515.759 415.893 515.356 416.07 514.856 416.07ZM514.856 415.37C515.122 415.37 515.332 415.263 515.486 415.05C515.639 414.83 515.716 414.53 515.716 414.15C515.716 413.77 515.639 413.473 515.486 413.26C515.332 413.04 515.122 412.93 514.856 412.93C514.589 412.93 514.379 413.037 514.226 413.25C514.072 413.463 513.996 413.763 513.996 414.15C513.996 414.537 514.072 414.837 514.226 415.05C514.379 415.263 514.589 415.37 514.856 415.37ZM525.823 414.91V416H520.573V409H525.683V410.09H521.873V411.91H525.253V412.98H521.873V414.91H525.823ZM530.454 416L529.084 414.15L527.704 416H526.324L528.404 413.29L526.414 410.66H527.804L529.114 412.41L530.424 410.66H531.774L529.774 413.27L531.864 416H530.454ZM535.747 410.6C536.267 410.6 536.73 410.713 537.137 410.94C537.55 411.167 537.873 411.487 538.107 411.9C538.34 412.313 538.457 412.79 538.457 413.33C538.457 413.87 538.34 414.35 538.107 414.77C537.873 415.183 537.55 415.503 537.137 415.73C536.73 415.957 536.267 416.07 535.747 416.07C535.027 416.07 534.457 415.83 534.037 415.35V417.94H532.787V410.66H533.977V411.36C534.183 411.107 534.437 410.917 534.737 410.79C535.043 410.663 535.38 410.6 535.747 410.6ZM535.607 415C536.067 415 536.443 414.847 536.737 414.54C537.037 414.233 537.187 413.83 537.187 413.33C537.187 412.83 537.037 412.427 536.737 412.12C536.443 411.813 536.067 411.66 535.607 411.66C535.307 411.66 535.037 411.73 534.797 411.87C534.557 412.003 534.367 412.197 534.227 412.45C534.087 412.703 534.017 412.997 534.017 413.33C534.017 413.663 534.087 413.957 534.227 414.21C534.367 414.463 534.557 414.66 534.797 414.8C535.037 414.933 535.307 415 535.607 415ZM539.945 416.07C539.718 416.07 539.525 415.993 539.365 415.84C539.205 415.68 539.125 415.48 539.125 415.24C539.125 414.993 539.201 414.793 539.355 414.64C539.515 414.487 539.711 414.41 539.945 414.41C540.178 414.41 540.371 414.487 540.525 414.64C540.685 414.793 540.765 414.993 540.765 415.24C540.765 415.48 540.685 415.68 540.525 415.84C540.365 415.993 540.171 416.07 539.945 416.07Z" fill="#59637C"/>
<rect x="495" y="458" width="57" height="22" rx="7" fill="#6F89E7"/>
<path d="M466.75 263.5C466.75 267.677 465.091 271.683 462.137 274.637C459.183 277.591 455.177 279.25 451 279.25C446.823 279.25 442.817 277.591 439.863 274.637C436.909 271.683 435.25 267.677 435.25 263.5C435.25 259.323 436.909 255.317 439.863 252.363C442.817 249.409 446.823 247.75 451 247.75C455.177 247.75 459.183 249.409 462.137 252.363C465.091 255.317 466.75 259.323 466.75 263.5Z" fill="#23272A"/>
<path fill-rule="evenodd" clip-rule="evenodd" d="M409 274C409 262.861 413.425 252.178 421.302 244.302C429.178 236.425 439.861 232 451 232C462.139 232 472.822 236.425 480.698 244.302C488.575 252.178 493 262.861 493 274C493 285.139 488.575 295.822 480.698 303.698C472.822 311.575 462.139 316 451 316C439.861 316 429.178 311.575 421.302 303.698C413.425 295.822 409 285.139 409 274ZM451 237.25C444.079 237.25 437.299 239.205 431.441 242.889C425.582 246.572 420.882 251.836 417.883 258.073C414.883 264.309 413.706 271.267 414.486 278.143C415.266 285.02 417.973 291.536 422.293 296.942C426.021 290.937 434.226 284.5 451 284.5C467.774 284.5 475.974 290.931 479.707 296.942C484.027 291.536 486.734 285.02 487.514 278.143C488.294 271.267 487.117 264.309 484.117 258.073C481.118 251.836 476.418 246.572 470.559 242.889C464.701 239.205 457.921 237.25 451 237.25Z" fill="#23272A"/>
<path d="M509.94 465H511.24V472H509.94V465ZM516.043 466.6C516.717 466.6 517.257 466.797 517.663 467.19C518.07 467.583 518.273 468.167 518.273 468.94V472H517.023V469.1C517.023 468.633 516.913 468.283 516.693 468.05C516.473 467.81 516.16 467.69 515.753 467.69C515.293 467.69 514.93 467.83 514.663 468.11C514.397 468.383 514.263 468.78 514.263 469.3V472H513.013V466.66H514.203V467.35C514.41 467.103 514.67 466.917 514.983 466.79C515.297 466.663 515.65 466.6 516.043 466.6ZM524.761 466.66L522.471 472H521.181L518.891 466.66H520.191L521.851 470.62L523.561 466.66H524.761ZM525.543 466.66H526.793V472H525.543V466.66ZM526.173 465.78C525.946 465.78 525.756 465.71 525.603 465.57C525.449 465.423 525.373 465.243 525.373 465.03C525.373 464.817 525.449 464.64 525.603 464.5C525.756 464.353 525.946 464.28 526.173 464.28C526.399 464.28 526.589 464.35 526.743 464.49C526.896 464.623 526.973 464.793 526.973 465C526.973 465.22 526.896 465.407 526.743 465.56C526.596 465.707 526.406 465.78 526.173 465.78ZM531.643 471.71C531.497 471.83 531.317 471.92 531.103 471.98C530.897 472.04 530.677 472.07 530.443 472.07C529.857 472.07 529.403 471.917 529.083 471.61C528.763 471.303 528.603 470.857 528.603 470.27V467.7H527.723V466.7H528.603V465.48H529.853V466.7H531.283V467.7H529.853V470.24C529.853 470.5 529.917 470.7 530.043 470.84C530.17 470.973 530.353 471.04 530.593 471.04C530.873 471.04 531.107 470.967 531.293 470.82L531.643 471.71ZM537.516 469.36C537.516 469.447 537.509 469.57 537.496 469.73H533.306C533.379 470.123 533.569 470.437 533.876 470.67C534.189 470.897 534.576 471.01 535.036 471.01C535.622 471.01 536.106 470.817 536.486 470.43L537.156 471.2C536.916 471.487 536.612 471.703 536.246 471.85C535.879 471.997 535.466 472.07 535.006 472.07C534.419 472.07 533.902 471.953 533.456 471.72C533.009 471.487 532.662 471.163 532.416 470.75C532.176 470.33 532.056 469.857 532.056 469.33C532.056 468.81 532.172 468.343 532.406 467.93C532.646 467.51 532.976 467.183 533.396 466.95C533.816 466.717 534.289 466.6 534.816 466.6C535.336 466.6 535.799 466.717 536.206 466.95C536.619 467.177 536.939 467.5 537.166 467.92C537.399 468.333 537.516 468.813 537.516 469.36ZM534.816 467.6C534.416 467.6 534.076 467.72 533.796 467.96C533.522 468.193 533.356 468.507 533.296 468.9H536.326C536.272 468.513 536.109 468.2 535.836 467.96C535.562 467.72 535.222 467.6 534.816 467.6Z" fill="white"/>
</g>
<defs>
<filter id="filter0_d" x="0" y="0" width="898" height="611.466" filterUnits="userSpaceOnUse" color-interpolation-filters="sRGB">
<feFlood flood-opacity="0" result="BackgroundImageFix"/>
<feColorMatrix in="SourceAlpha" type="matrix" values="0 0 0 0 0 0 0 0 0 0 0 0 0 0 0 0 0 0 127 0" result="hardAlpha"/>
<feOffset dx="-3" dy="4"/>
<feGaussianBlur stdDeviation="48.5"/>
<feComposite in2="hardAlpha" operator="out"/>
<feColorMatrix type="matrix" values="0 0 0 0 0 0 0 0 0 0 0 0 0 0 0 0 0 0 0.25 0"/>
<feBlend mode="normal" in2="BackgroundImageFix" result="effect1_dropShadow"/>
<feBlend mode="normal" in="SourceGraphic" in2="effect1_dropShadow" result="shape"/>
</filter>
</defs>
</svg>
