<svg width="85" height="85" viewBox="0 0 85 85" fill="none" xmlns="http://www.w3.org/2000/svg">
<path d="M15.9375 15.9375C15.9375 13.1196 17.0569 10.4171 19.0495 8.42449C21.0421 6.43192 23.7446 5.3125 26.5625 5.3125C29.3804 5.3125 32.0829 6.43192 34.0755 8.42449C36.0681 10.4171 37.1875 13.1196 37.1875 15.9375C37.1875 18.7554 36.0681 21.4579 34.0755 23.4505C32.0829 25.4431 29.3804 26.5625 26.5625 26.5625C23.7446 26.5625 21.0421 25.4431 19.0495 23.4505C17.0569 21.4579 15.9375 18.7554 15.9375 15.9375Z" fill="#2F3749"/>
<path d="M51.9509 24.3526L52.1741 24.5226C54.4281 26.1934 57.2515 26.9048 60.0282 26.5015C62.8048 26.0983 65.3093 24.6131 66.9949 22.3701C68.6806 20.1272 69.4106 17.3085 69.0257 14.5292C68.6408 11.75 67.1722 9.23582 64.9404 7.5354C62.7085 5.83497 59.8947 5.08636 57.113 5.45292C54.3313 5.81949 51.8075 7.27147 50.0924 9.49201C48.3772 11.7125 47.6101 14.5213 47.9583 17.3054C48.3065 20.0895 49.7418 22.6228 51.9509 24.3526Z" fill="#2F3749"/>
<path d="M33.2987 31.8751C33.966 30.6116 34.8812 29.4957 35.9897 28.594C37.0982 27.6924 38.3772 27.0237 39.7502 26.6278C41.1231 26.2319 42.5618 26.117 43.9801 26.2899C45.3985 26.4629 46.7674 26.9201 48.005 27.6344C49.2425 28.3486 50.3233 29.3051 51.1827 30.4467C52.042 31.5882 52.6623 32.8914 53.0064 34.2783C53.3505 35.6651 53.4113 37.1071 53.1852 38.5179C52.9591 39.9288 52.4508 41.2796 51.6906 42.4895C50.2282 44.817 47.9206 46.4872 45.2526 47.1491C42.5846 47.8111 39.7639 47.4132 37.3831 46.0392C35.0023 44.6652 33.2467 42.4219 32.485 39.7807C31.7234 37.1394 32.015 34.3058 33.2987 31.8751Z" fill="#2F3749"/>
<path d="M13.2812 31.875H27.4656C26.8813 33.5378 26.5625 35.3281 26.5625 37.1875C26.5625 41.2675 28.0978 44.9969 30.6213 47.8125H29.2188C26.4798 47.8121 23.8077 48.6582 21.5681 50.2349C19.3286 51.8116 17.631 54.042 16.7078 56.6206C14.9246 55.9043 13.2549 54.9326 11.7512 53.7359C7.75625 50.5219 5.3125 45.7725 5.3125 39.8438C5.3125 37.7303 6.15206 35.7034 7.64649 34.209C9.14092 32.7146 11.1678 31.875 13.2812 31.875Z" fill="#2F3749"/>
<path d="M55.7813 47.8125C61.5453 47.8125 66.4541 51.4834 68.2869 56.6206C70.0932 55.8822 71.7666 54.9206 73.2488 53.7359C77.2438 50.5219 79.6875 45.7725 79.6875 39.8438C79.6875 37.7303 78.848 35.7034 77.3535 34.209C75.8591 32.7146 73.8322 31.875 71.7188 31.875H57.5344C58.1188 33.5378 58.4375 35.3281 58.4375 37.1875C58.4424 41.1087 56.9968 44.8932 54.3788 47.8125H55.7813Z" fill="#2F3749"/>
<path d="M63.1497 58.055C63.5375 58.99 63.75 60.0207 63.75 61.0938C63.75 67.0225 61.3116 71.7719 57.3113 74.986C53.3747 78.1469 48.0941 79.6875 42.5 79.6875C36.906 79.6875 31.6253 78.1469 27.6888 74.986C23.6938 71.7719 21.25 67.0225 21.25 61.0938C21.2472 60.0465 21.4514 59.009 21.8509 58.041C22.2504 57.0729 22.8372 56.1933 23.5778 55.4528C24.3183 54.7122 25.1979 54.1254 26.166 53.7259C27.134 53.3264 28.1715 53.1222 29.2188 53.125H55.7813C57.3596 53.1247 58.9026 53.593 60.2144 54.4707C61.5262 55.3484 62.5478 56.5959 63.1497 58.055Z" fill="#2F3749"/>
</svg>
