<svg width="75" height="75" viewBox="0 0 75 75" fill="none" xmlns="http://www.w3.org/2000/svg">
<path fill-rule="evenodd" clip-rule="evenodd" d="M23.4376 53.9064C23.4376 53.2848 23.6845 52.6887 24.1241 52.2491C24.5636 51.8096 25.1597 51.5627 25.7813 51.5627H67.9688C68.5904 51.5627 69.1866 51.8096 69.6261 52.2491C70.0657 52.6887 70.3126 53.2848 70.3126 53.9064C70.3126 54.528 70.0657 55.1242 69.6261 55.5637C69.1866 56.0032 68.5904 56.2502 67.9688 56.2502H25.7813C25.1597 56.2502 24.5636 56.0032 24.1241 55.5637C23.6845 55.1242 23.4376 54.528 23.4376 53.9064ZM23.4376 35.1564C23.4376 34.5348 23.6845 33.9387 24.1241 33.4991C24.5636 33.0596 25.1597 32.8127 25.7813 32.8127H67.9688C68.5904 32.8127 69.1866 33.0596 69.6261 33.4991C70.0657 33.9387 70.3126 34.5348 70.3126 35.1564C70.3126 35.778 70.0657 36.3742 69.6261 36.8137C69.1866 37.2532 68.5904 37.5002 67.9688 37.5002H25.7813C25.1597 37.5002 24.5636 37.2532 24.1241 36.8137C23.6845 36.3742 23.4376 35.778 23.4376 35.1564ZM23.4376 16.4064C23.4376 15.7848 23.6845 15.1887 24.1241 14.7491C24.5636 14.3096 25.1597 14.0627 25.7813 14.0627H67.9688C68.5904 14.0627 69.1866 14.3096 69.6261 14.7491C70.0657 15.1887 70.3126 15.7848 70.3126 16.4064C70.3126 17.028 70.0657 17.6242 69.6261 18.0637C69.1866 18.5032 68.5904 18.7502 67.9688 18.7502H25.7813C25.1597 18.7502 24.5636 18.5032 24.1241 18.0637C23.6845 17.6242 23.4376 17.028 23.4376 16.4064ZM18.0657 10.0595C18.284 10.2773 18.4572 10.5359 18.5753 10.8206C18.6935 11.1054 18.7543 11.4106 18.7543 11.7189C18.7543 12.0272 18.6935 12.3325 18.5753 12.6172C18.4572 12.9019 18.284 13.1606 18.0657 13.3783L11.0345 20.4095C10.8168 20.6278 10.5581 20.801 10.2734 20.9191C9.98863 21.0373 9.68338 21.0981 9.37509 21.0981C9.06681 21.0981 8.76155 21.0373 8.47681 20.9191C8.19207 20.801 7.93343 20.6278 7.71572 20.4095L5.37197 18.0658C5.15406 17.8479 4.9812 17.5892 4.86326 17.3045C4.74533 17.0197 4.68463 16.7146 4.68463 16.4064C4.68463 16.0982 4.74533 15.7931 4.86326 15.5084C4.9812 15.2236 5.15406 14.9649 5.37197 14.747C5.58988 14.5291 5.84858 14.3563 6.13329 14.2383C6.41801 14.1204 6.72317 14.0597 7.03134 14.0597C7.33952 14.0597 7.64467 14.1204 7.92939 14.2383C8.21411 14.3563 8.4728 14.5291 8.69072 14.747L9.37509 15.4361L14.747 10.0595C14.9647 9.84127 15.2233 9.6681 15.5081 9.54995C15.7928 9.43179 16.0981 9.37097 16.4063 9.37097C16.7146 9.37097 17.0199 9.43179 17.3046 9.54995C17.5894 9.6681 17.848 9.84127 18.0657 10.0595ZM18.0657 28.8095C18.284 29.0272 18.4572 29.2859 18.5753 29.5706C18.6935 29.8554 18.7543 30.1606 18.7543 30.4689C18.7543 30.7772 18.6935 31.0825 18.5753 31.3672C18.4572 31.6519 18.284 31.9106 18.0657 32.1283L11.0345 39.1595C10.8168 39.3778 10.5581 39.551 10.2734 39.6691C9.98863 39.7873 9.68338 39.8481 9.37509 39.8481C9.06681 39.8481 8.76155 39.7873 8.47681 39.6691C8.19207 39.551 7.93343 39.3778 7.71572 39.1595L5.37197 36.8158C4.93187 36.3757 4.68463 35.7788 4.68463 35.1564C4.68463 34.534 4.93187 33.9371 5.37197 33.497C5.81206 33.0569 6.40896 32.8097 7.03134 32.8097C7.65373 32.8097 8.25062 33.0569 8.69072 33.497L9.37509 34.1861L14.747 28.8095C14.9647 28.5913 15.2233 28.4181 15.5081 28.2999C15.7928 28.1818 16.0981 28.121 16.4063 28.121C16.7146 28.121 17.0199 28.1818 17.3046 28.2999C17.5894 28.4181 17.848 28.5913 18.0657 28.8095ZM18.0657 47.5595C18.284 47.7772 18.4572 48.0359 18.5753 48.3206C18.6935 48.6054 18.7543 48.9106 18.7543 49.2189C18.7543 49.5272 18.6935 49.8324 18.5753 50.1172C18.4572 50.4019 18.284 50.6606 18.0657 50.8783L11.0345 57.9095C10.8168 58.1278 10.5581 58.301 10.2734 58.4191C9.98863 58.5373 9.68338 58.5981 9.37509 58.5981C9.06681 58.5981 8.76155 58.5373 8.47681 58.4191C8.19207 58.301 7.93343 58.1278 7.71572 57.9095L5.37197 55.5658C4.93187 55.1257 4.68463 54.5288 4.68463 53.9064C4.68463 53.284 4.93187 52.6871 5.37197 52.247C5.81206 51.8069 6.40896 51.5597 7.03134 51.5597C7.65373 51.5597 8.25062 51.8069 8.69072 52.247L9.37509 52.9361L14.747 47.5595C14.9647 47.3413 15.2233 47.1681 15.5081 47.0499C15.7928 46.9318 16.0981 46.871 16.4063 46.871C16.7146 46.871 17.0199 46.9318 17.3046 47.0499C17.5894 47.1681 17.848 47.3413 18.0657 47.5595Z" fill="#2F3749"/>
</svg>
