<svg width="50" height="41" viewBox="0 0 50 41" fill="none" xmlns="http://www.w3.org/2000/svg">
<g clip-path="url(#clip0)">
<path d="M49.996 4.81027C48.6039 6.88099 46.8959 8.64617 44.8722 10.1058C44.8922 10.4973 44.9022 10.9398 44.9022 11.4332C44.9022 14.175 44.5025 16.92 43.703 19.6684C42.9035 22.4168 41.6823 25.0475 40.0394 27.5605C38.3965 30.0735 36.4395 32.2998 34.1684 34.2394C31.8973 36.179 29.1673 37.7255 25.9785 38.879C22.7896 40.0324 19.3721 40.6092 15.7257 40.6092C10.035 40.6092 4.79447 39.0729 0.00402832 36.0003C0.854275 36.0949 1.66973 36.1423 2.4504 36.1423C7.20452 36.1423 11.4507 34.6779 15.189 31.7493C12.9723 31.7086 10.9872 31.0263 9.23347 29.7022C7.47978 28.3782 6.27293 26.6863 5.61292 24.6266C6.26529 24.7508 6.90917 24.813 7.54454 24.813C8.45911 24.813 9.35903 24.6937 10.2443 24.4551C7.87875 23.9813 5.91631 22.8031 4.357 20.9205C2.79775 19.0379 2.01812 16.865 2.01812 14.4018V14.2748C3.47011 15.0788 5.01889 15.5064 6.66445 15.5578C5.26311 14.6235 4.15206 13.4053 3.3313 11.903C2.51048 10.4007 2.10007 8.77494 2.10007 7.02575C2.10007 5.18093 2.56235 3.46305 3.48691 1.87212C6.05942 5.02899 9.17655 7.55207 12.8383 9.44134C16.5001 11.3306 20.4285 12.3799 24.6236 12.5891C24.4446 11.8434 24.355 11.0653 24.3547 10.2547C24.3547 7.42435 25.3563 5.00765 27.3595 3.00459C29.3628 1.00153 31.7796 0 34.6099 0C37.5732 0 40.0692 1.079 42.0979 3.23699C44.4158 2.77787 46.5862 1.94742 48.6089 0.745665C47.8296 3.19819 46.328 5.09014 44.104 6.42152C46.1481 6.17863 48.112 5.64154 49.9959 4.81027H49.996Z" fill="white"/>
</g>
<defs>
<clipPath id="clip0">
<rect width="50" height="40.6091" fill="white"/>
</clipPath>
</defs>
</svg>
