<svg width="30" height="35" viewBox="0 0 30 35" fill="none" xmlns="http://www.w3.org/2000/svg">
<path d="M28.1938 17.0295C25.1772 15.2441 21.7524 15.1196 18.7021 17.3554C17.226 18.4371 16.1358 20.0713 14.5826 21.0211C13.0575 21.9538 11.0352 21.4018 9.57336 20.613C7.78448 19.6477 6.12235 17.404 3.87058 17.7756C2.8574 17.9428 2.02575 18.6152 1.55371 19.4896C1.5583 19.0404 1.58569 18.5912 1.63478 18.1449C1.81457 16.5187 2.29061 14.9193 3.0629 13.4335C5.32208 9.7262 9.50089 10.8781 12.505 13.8816C17.1741 18.5513 26.9603 12.7822 20.0292 5.64502L24.5082 10.1235C26.2154 11.8307 27.3673 13.8822 27.9638 16.0546C28.0209 16.2595 28.0722 16.4656 28.1185 16.6728C28.1453 16.7915 28.1704 16.9102 28.1938 17.0295Z" fill="#5D6BFF" fill-opacity="0.8"/>
<path d="M28.287 21.706C28.6934 17.8971 22.4775 16.1973 19.2725 22.4297C16.0675 28.6623 9.12265 31.2149 4.01178 27.3859C4.01178 27.3854 4.01118 27.3854 4.01118 27.3854C3.86793 27.1827 3.73095 26.9767 3.6002 26.7683C2.20975 24.552 1.52763 22.0176 1.55447 19.4896C2.02651 18.6151 2.85817 17.9427 3.87134 17.7755C6.12311 17.4039 7.78529 19.6477 9.57412 20.6129C11.0359 21.4017 13.0582 21.9537 14.5834 21.021C16.1365 20.0712 17.2268 18.437 18.7028 17.3554C21.7532 15.1195 25.1779 15.244 28.1946 17.0294C28.3436 17.7886 28.4269 18.5586 28.444 19.3292C28.4617 20.1238 28.4092 20.9195 28.287 21.706Z" fill="#5D6BFF" fill-opacity="0.9"/>
<path d="M12.5055 13.8816C9.50146 10.878 5.32266 9.7262 3.06348 13.4335C3.54807 12.4997 4.15026 11.611 4.87005 10.7891C5.06753 10.5619 5.2753 10.3399 5.49166 10.1235L14.1142 1.50148C14.6037 1.012 15.3973 1.01205 15.8867 1.50157L19.5052 5.12049L20.0298 5.64507C26.9609 12.7822 17.1746 18.5513 12.5055 13.8816Z" fill="#5D6BFF" fill-opacity="0.7"/>
<path d="M28.2861 21.706C28.2861 21.7066 28.2861 21.7066 28.2861 21.7072C27.8636 24.4281 26.6039 27.0441 24.5079 29.1406C19.2566 34.3919 10.7421 34.3919 5.49081 29.1406C4.93944 28.5892 4.44625 28.0019 4.01074 27.386C9.12165 31.2148 16.0665 28.6623 19.2715 22.4298C22.4765 16.1973 28.6925 17.8971 28.2861 21.706Z" fill="#5D6BFF"/>
<path d="M7.69749 15.0077C6.79627 14.7052 6.23735 13.9485 6.44912 13.3177C6.66089 12.6868 7.56312 12.4206 8.46435 12.7232C9.36557 13.0257 9.92449 13.7824 9.71272 14.4132C9.50095 15.0441 8.59872 15.3102 7.69749 15.0077Z" fill="#8690F7"/>
<path d="M5.00488 23.8181C3.66078 23.3669 2.82718 22.2384 3.14302 21.2976C3.45887 20.3567 4.80449 19.9597 6.14863 20.4109C7.49274 20.8621 8.32634 21.9906 8.0105 22.9315C7.69465 23.8723 6.34899 24.2693 5.00488 23.8181Z" fill="#7884FA"/>
<path d="M24.1955 25.0625C22.9677 25.7714 21.57 25.6493 21.0738 24.7898C20.5775 23.9303 21.1706 22.6588 22.3985 21.9499C23.6263 21.241 25.024 21.3631 25.5203 22.2226C26.0165 23.0821 25.4234 24.3536 24.1955 25.0625Z" fill="#6B78FC"/>
</svg>
