<svg width="600" height="684" viewBox="0 0 600 684" fill="none" xmlns="http://www.w3.org/2000/svg">
<path d="M563.88 340.59C503.547 304.881 435.052 302.393 374.045 347.109C344.524 368.741 322.719 401.425 291.656 420.421C261.153 439.075 220.707 428.036 191.471 412.259C155.693 392.955 122.45 348.079 77.415 355.511C57.1515 358.856 40.5184 372.303 31.0776 389.793C31.1695 380.809 31.7173 371.824 32.699 362.897C36.2948 330.373 45.8156 298.386 61.2613 268.67C106.445 194.524 190.021 217.562 250.103 277.632C343.485 371.025 539.21 255.645 400.587 112.9L490.167 202.47C524.312 236.615 547.349 277.643 559.279 321.092C560.421 325.19 561.448 329.312 562.373 333.455C562.909 335.83 563.412 338.205 563.88 340.59Z" fill="white" fill-opacity="0.8"/>
<path d="M565.731 434.121C573.859 357.942 449.54 323.946 385.44 448.596C321.34 573.246 182.443 624.298 80.2258 547.719C80.2258 547.708 80.2139 547.708 80.2139 547.708C77.3488 543.655 74.6092 539.534 71.9943 535.367C44.1853 491.04 30.5429 440.353 31.0797 389.792C40.5204 372.303 57.1536 358.855 77.417 355.51C122.452 348.079 155.696 392.955 191.473 412.258C220.709 428.035 261.155 439.075 291.658 420.421C322.721 401.425 344.526 368.741 374.047 347.108C435.053 302.392 503.548 304.88 563.882 340.59C566.862 355.772 568.529 371.173 568.871 386.584C569.225 402.476 568.174 418.39 565.731 434.121Z" fill="white" fill-opacity="0.9"/>
<path d="M250.104 277.632C190.023 217.561 106.447 194.524 61.2629 268.67C70.9548 249.994 82.9986 232.219 97.3944 215.781C101.344 211.237 105.499 206.797 109.827 202.47L282.277 30.0297C292.067 20.2401 307.939 20.2409 317.728 30.0314L390.097 102.41L400.589 112.901C539.211 255.645 343.486 371.025 250.104 277.632Z" fill="white" fill-opacity="0.7"/>
<path d="M565.725 434.121C565.725 434.132 565.725 434.132 565.725 434.143C557.277 488.563 532.082 540.882 490.162 582.812C385.136 687.838 214.846 687.838 109.82 582.812C98.7922 571.784 88.9284 560.037 80.2183 547.719C182.437 624.297 321.333 573.245 385.433 448.596C449.533 323.946 573.853 357.942 565.725 434.121Z" fill="white"/>
<path d="M153.953 300.153C135.929 294.103 124.75 278.97 128.986 266.353C133.221 253.736 151.266 248.412 169.29 254.463C187.315 260.514 198.493 275.647 194.258 288.264C190.022 300.88 171.977 306.204 153.953 300.153Z" fill="#BEC0C4"/>
<path d="M100.094 476.363C73.2121 467.339 56.5402 444.769 62.857 425.952C69.1739 407.134 96.0863 399.194 122.969 408.219C149.851 417.242 166.523 439.812 160.206 458.63C153.889 477.447 126.976 485.386 100.094 476.363Z" fill="#D4D5D8"/>
<path d="M483.921 501.249C459.364 515.428 431.41 512.985 421.485 495.795C411.561 478.605 423.422 453.176 447.979 438.997C472.537 424.819 500.49 427.261 510.415 444.451C520.34 461.642 508.478 487.071 483.921 501.249Z" fill="#E9EAEB"/>
</svg>
