<svg xmlns="http://www.w3.org/2000/svg" width="187" height="214" viewBox="0 0 187 214" fill="none">
<path d="M175.743 106.151C156.939 95.0212 135.592 94.2456 116.578 108.182C107.377 114.924 100.581 125.111 90.8999 131.031C81.3931 136.845 68.7874 133.404 59.6753 128.487C48.5247 122.471 38.164 108.485 24.128 110.801C17.8125 111.843 12.6285 116.034 9.68616 121.485C9.71479 118.685 9.8855 115.885 10.1915 113.103C11.3122 102.966 14.2795 92.997 19.0934 83.7355C33.1757 60.6266 59.2236 67.8066 77.9491 86.5284C107.053 115.636 168.054 79.6759 124.85 35.1872L152.769 63.103C163.411 73.7449 170.591 86.5321 174.309 100.074C174.665 101.351 174.985 102.635 175.273 103.927C175.44 104.667 175.597 105.407 175.743 106.151Z" fill="#5D6BFF" fill-opacity="0.8"/>
<path d="M176.319 135.301C178.852 111.559 140.106 100.963 120.129 139.812C100.151 178.661 56.8611 194.573 25.0033 170.706C25.0033 170.702 24.9997 170.702 24.9997 170.702C24.1067 169.439 23.2528 168.155 22.4379 166.856C13.7707 153.041 9.51884 137.243 9.68615 121.485C12.6285 116.034 17.8125 111.843 24.128 110.801C38.164 108.484 48.5249 122.471 59.6753 128.487C68.7874 133.404 81.393 136.845 90.8998 131.031C100.581 125.111 107.377 114.924 116.578 108.182C135.591 94.2454 156.939 95.021 175.743 106.15C176.672 110.882 177.191 115.682 177.298 120.485C177.408 125.438 177.081 130.398 176.319 135.301Z" fill="#5D6BFF" fill-opacity="0.9"/>
<path d="M77.949 86.5284C59.2235 67.8064 33.1756 60.6266 19.0934 83.7355C22.114 77.9146 25.8677 72.375 30.3544 67.2517C31.5853 65.8355 32.8804 64.4517 34.2291 63.103L87.9761 9.35918C91.0275 6.30809 95.9743 6.30836 99.0251 9.35971L121.58 31.9176L124.85 35.1875C168.054 79.6759 107.053 115.636 77.949 86.5284Z" fill="#5D6BFF" fill-opacity="0.7"/>
<path d="M176.319 135.301C176.319 135.304 176.319 135.304 176.319 135.308C173.686 152.269 165.834 168.575 152.769 181.643C120.036 214.376 66.962 214.376 34.2288 181.643C30.7919 178.206 27.7177 174.545 25.0031 170.706C56.8611 194.572 100.151 178.661 120.128 139.812C140.106 100.963 178.853 111.559 176.319 135.301Z" fill="#5D6BFF"/>
<path d="M47.9823 93.5478C42.3647 91.662 38.8807 86.9458 40.2008 83.0132C41.5208 79.081 47.1447 77.4219 52.7623 79.3077C58.38 81.1934 61.8639 85.9099 60.5439 89.8422C59.2238 93.7744 53.5999 95.4336 47.9823 93.5478Z" fill="#8690F7"/>
<path d="M31.195 148.466C22.8168 145.654 17.6207 138.62 19.5894 132.755C21.5582 126.89 29.9459 124.415 38.3244 127.228C46.7026 130.04 51.8987 137.075 49.9299 142.94C47.9612 148.804 39.5732 151.279 31.195 148.466Z" fill="#7884FA"/>
<path d="M150.822 156.223C143.168 160.642 134.456 159.88 131.363 154.523C128.269 149.165 131.966 141.24 139.62 136.821C147.274 132.402 155.986 133.163 159.079 138.521C162.172 143.878 158.475 151.804 150.822 156.223Z" fill="#6B78FC"/>
<path d="M175.743 106.151C156.939 95.0212 135.592 94.2456 116.578 108.182C107.377 114.924 100.581 125.111 90.8999 131.031C81.3931 136.845 68.7874 133.404 59.6753 128.487C48.5247 122.471 38.164 108.485 24.128 110.801C17.8125 111.843 12.6285 116.034 9.68616 121.485C9.71479 118.685 9.8855 115.885 10.1915 113.103C11.3122 102.966 14.2795 92.997 19.0934 83.7355C33.1757 60.6266 59.2236 67.8066 77.9491 86.5284C107.053 115.636 168.054 79.6759 124.85 35.1872L152.769 63.103C163.411 73.7449 170.591 86.5321 174.309 100.074C174.665 101.351 174.985 102.635 175.273 103.927C175.44 104.667 175.597 105.407 175.743 106.151Z" fill="#5F6DFF" fill-opacity="0.8"/>
<path d="M176.319 135.301C178.852 111.559 140.106 100.963 120.129 139.812C100.151 178.661 56.8611 194.573 25.0033 170.706C25.0033 170.702 24.9997 170.702 24.9997 170.702C24.1067 169.439 23.2528 168.155 22.4379 166.856C13.7707 153.041 9.51884 137.243 9.68615 121.485C12.6285 116.034 17.8125 111.843 24.128 110.801C38.164 108.484 48.5249 122.471 59.6753 128.487C68.7874 133.404 81.393 136.845 90.8998 131.031C100.581 125.111 107.377 114.924 116.578 108.182C135.591 94.2454 156.939 95.021 175.743 106.15C176.672 110.882 177.191 115.682 177.298 120.485C177.408 125.438 177.081 130.398 176.319 135.301Z" fill="#5665FF" fill-opacity="0.9"/>
<path d="M77.949 86.5284C59.2235 67.8064 33.1756 60.6266 19.0934 83.7355C22.114 77.9146 25.8677 72.375 30.3544 67.2517C31.5853 65.8355 32.8804 64.4517 34.2291 63.103L87.9761 9.35918C91.0275 6.30809 95.9743 6.30836 99.0251 9.35971L121.58 31.9176L124.85 35.1875C168.054 79.6759 107.053 115.636 77.949 86.5284Z" fill="#5D6BFF" fill-opacity="0.7"/>
<path d="M176.319 135.301C176.319 135.304 176.319 135.304 176.319 135.308C173.686 152.269 165.834 168.575 152.769 181.643C120.036 214.376 66.962 214.376 34.2288 181.643C30.7919 178.206 27.7177 174.545 25.0031 170.706C56.8611 194.572 100.151 178.661 120.128 139.812C140.106 100.963 178.853 111.559 176.319 135.301Z" fill="#5160FF"/>
<path d="M47.9823 93.5478C42.3647 91.662 38.8807 86.9458 40.2008 83.0132C41.5208 79.081 47.1447 77.4219 52.7623 79.3077C58.38 81.1934 61.8639 85.9099 60.5439 89.8422C59.2238 93.7744 53.5999 95.4336 47.9823 93.5478Z" fill="#8690F7"/>
<path d="M31.195 148.466C22.8168 145.654 17.6207 138.62 19.5894 132.755C21.5582 126.89 29.9459 124.415 38.3244 127.228C46.7026 130.04 51.8987 137.075 49.9299 142.94C47.9612 148.804 39.5732 151.279 31.195 148.466Z" fill="#7884FA"/>
<path d="M150.822 156.223C143.168 160.642 134.456 159.88 131.363 154.523C128.269 149.165 131.966 141.24 139.62 136.821C147.274 132.402 155.986 133.163 159.079 138.521C162.172 143.878 158.475 151.804 150.822 156.223Z" fill="#6B78FC"/>
</svg>